<?xml version="1.0" encoding="UTF-8"?>
<svg version="1.1" xmlns="http://www.w3.org/2000/svg" width="1400" height="700">
<path d="M0 0 C3.96771785 0.15457448 7.93686583 0.22218562 11.90673828 0.29754639 C19.67042563 0.45754066 27.4270067 0.71283784 35.18603516 1.02996826 C33.79618936 4.62781124 32.28006174 7.58423435 30.05322266 10.74090576 C29.42029297 11.64389404 28.78736328 12.54688232 28.13525391 13.47723389 C27.45076172 14.44338623 26.76626953 15.40953857 26.06103516 16.40496826 C24.59996588 18.4856049 23.1390321 20.56633669 21.67822266 22.64715576 C20.55625488 24.23995361 20.55625488 24.23995361 19.41162109 25.8649292 C15.9837066 30.73981769 12.58547981 35.63520627 9.18603516 40.52996826 C7.85286422 42.44674789 6.51953037 44.36341422 5.18603516 46.27996826 C4.52603516 47.22871826 3.86603516 48.17746826 3.18603516 49.15496826 C-2.81396484 57.77996826 -2.81396484 57.77996826 -4.81518555 60.65667725 C-6.14450713 62.56760747 -7.47377173 64.47857733 -8.80297852 66.3895874 C-12.19721833 71.26935328 -15.59253674 76.14836292 -18.98974609 81.02606201 C-25.25954509 90.0301532 -31.52105113 99.03896103 -37.72216797 108.09051514 C-42.05738777 114.40754971 -46.45870807 120.67811747 -50.86914062 126.94281006 C-51.42456543 127.7334082 -51.97999023 128.52400635 -52.55224609 129.33856201 C-53.03733643 130.02748535 -53.52242676 130.71640869 -54.0222168 131.4262085 C-55.81855189 133.88543075 -55.81855189 133.88543075 -56.84305286 136.21998119 C-58.2674168 138.93173721 -59.59092722 140.91067242 -61.81396484 143.02996826 C-66.15404074 144.32501744 -70.35461451 144.11536107 -74.85253906 143.96893311 C-76.87034256 143.9587998 -78.88814609 143.94867272 -80.90595078 143.93878007 C-83.06808176 143.91955959 -85.22878658 143.87814857 -87.3904686 143.83051682 C-91.9047243 143.73273217 -96.41770582 143.70609437 -100.93289185 143.69052124 C-112.14608955 143.64075618 -123.3578422 143.49578411 -134.56994629 143.33569336 C-143.28567536 143.21242323 -152.00015483 143.11479038 -160.71679699 143.09199488 C-165.20076275 143.07738699 -169.67999212 143.01101836 -174.16267753 142.90470481 C-177.61398515 142.83672441 -181.06464937 142.84032496 -184.51660156 142.83221436 C-185.75011353 142.78787766 -186.98362549 142.74354095 -188.2545166 142.69786072 C-193.37163995 142.74484824 -196.5203317 142.79223227 -200.31946182 146.42720413 C-202.36687009 149.21413945 -204.11806859 152.01931399 -205.81396484 155.02996826 C-206.67417507 156.29535806 -207.54525601 157.55363614 -208.43896484 158.79559326 C-209.2319781 159.9561326 -210.02361504 161.11761343 -210.81396484 162.27996826 C-215.44590089 169.05434158 -220.12248706 175.79670649 -224.81396484 182.52996826 C-229.75792436 189.62798284 -234.68575805 196.73611343 -239.57592773 203.87127686 C-244.45836349 210.98612709 -249.39631872 218.06241359 -254.33349609 225.13934326 C-254.98576172 226.07520264 -255.63802734 227.01106201 -256.31005859 227.97528076 C-256.88941162 228.80559814 -257.46876465 229.63591553 -258.06567383 230.49139404 C-259.90410383 233.06506052 -259.90410383 233.06506052 -261.50471497 236.14605713 C-263.81396484 239.02996826 -263.81396484 239.02996826 -266.87652588 239.75149536 C-268.07565613 239.73817169 -269.27478638 239.72484802 -270.51025391 239.71112061 C-271.50599426 239.71243484 -271.50599426 239.71243484 -272.52185059 239.71377563 C-274.70897473 239.70960595 -276.89300407 239.66299622 -279.07958984 239.61590576 C-280.59843266 239.6047111 -282.11729718 239.59617218 -283.63616943 239.59017944 C-287.62833782 239.56730144 -291.61919037 239.50838996 -295.61083984 239.44195557 C-299.68617959 239.38050911 -303.7617326 239.35315957 -307.83740234 239.32293701 C-315.83019282 239.25864319 -323.82191502 239.15627912 -331.81396484 239.02996826 C-329.92119805 235.1039143 -327.54790893 231.60050013 -325.06396484 228.02996826 C-324.5822583 227.33355225 -324.10055176 226.63713623 -323.60424805 225.9196167 C-317.97186736 217.78922639 -312.29229056 209.69158579 -306.61230469 201.59442139 C-303.676715 197.40823701 -300.74552875 193.21897234 -297.81396484 189.02996826 C-296.64732003 187.3632863 -295.48065335 185.69661964 -294.31396484 184.02996826 C-293.73646484 183.20496826 -293.15896484 182.37996826 -292.56396484 181.52996826 C-290.81396484 179.02996826 -289.06396484 176.52996826 -287.31396484 174.02996826 C-286.73630371 173.20472656 -286.15864258 172.37948486 -285.56347656 171.52923584 C-284.39848121 169.86497998 -283.23344224 168.20075465 -282.06835938 166.53656006 C-279.12576073 162.33325903 -276.1839558 158.12940645 -273.24365234 153.92449951 C-267.30459655 145.43269167 -261.35518842 136.94865069 -255.37011719 128.48919678 C-252.59878151 124.56907538 -249.84091223 120.63997391 -247.09521484 116.70184326 C-246.15162109 115.34929443 -246.15162109 115.34929443 -245.18896484 113.96942139 C-243.96873306 112.21915142 -242.74990802 110.46789961 -241.53271484 108.71551514 C-240.97583984 107.91694092 -240.41896484 107.1183667 -239.84521484 106.29559326 C-239.11141602 105.24033447 -239.11141602 105.24033447 -238.36279297 104.16375732 C-237.85167969 103.45960693 -237.34056641 102.75545654 -236.81396484 102.02996826 C-236.23842991 101.17336011 -235.66289497 100.31675196 -235.06991959 99.43418598 C-232.81396484 97.02996826 -232.81396484 97.02996826 -230.19781113 96.41472912 C-229.19858753 96.41933808 -228.19936394 96.42394705 -227.16986084 96.42869568 C-226.02003723 96.42182236 -224.87021362 96.41494904 -223.68554688 96.40786743 C-221.79956787 96.434832 -221.79956787 96.434832 -219.87548828 96.46234131 C-218.53501437 96.46375203 -217.1945366 96.46295933 -215.85406494 96.46012878 C-212.21771541 96.45869409 -208.58219041 96.48809101 -204.94603252 96.52299857 C-201.14507413 96.554254 -197.34409686 96.55719214 -193.54302979 96.56312561 C-186.34645611 96.57866655 -179.1502622 96.61969805 -171.95385575 96.66987306 C-163.76050222 96.72575902 -155.56713055 96.75325108 -147.37363386 96.77835023 C-130.52019119 96.83061397 -113.66711817 96.91856075 -96.81396484 97.02996826 C-96.51846741 96.25623871 -96.22296997 95.48250916 -95.91851807 94.68533325 C-94.68285788 91.71478486 -93.11347514 89.50760903 -91.17333984 86.94403076 C-86.92780772 81.22653551 -82.97921987 75.35165025 -79.06396484 69.40496826 C-73.95915145 61.6957547 -68.7759409 54.06623492 -63.39526367 46.54754639 C-58.37255888 39.48924885 -53.60606658 32.26199197 -48.85888672 25.01629639 C-47.57306776 23.06700015 -46.24995777 21.1419007 -44.89477539 19.24017334 C-43.27910559 16.74757189 -42.20073929 14.67378007 -41.07104492 11.98187256 C-33.37912871 -4.18423483 -15.2990538 -0.65916894 0 0 Z " fill="#F2F6F8" transform="translate(367.81396484375,229.97003173828125)"/>
<path d="M0 0 C59.07 0 118.14 0 179 0 C175.535 5.445 175.535 5.445 172 11 C170.40318032 14.46225928 170.40318032 14.46225928 168.88978004 17.96115685 C163.82590681 29.89820476 156.73330935 44.91407132 144.1186142 50.20957184 C127.58110563 54.95158379 109.39323753 53.18972824 92.44006348 52.25042725 C87.07695754 51.97665602 81.71302337 51.93192324 76.34416103 51.87230778 C69.91331565 51.79150767 63.48681735 51.60528 57.05859375 51.41015625 C55.84440702 51.38189318 54.6302203 51.3536301 53.37924004 51.32451057 C33.2898842 50.74353445 33.2898842 50.74353445 28.77326965 46.5370636 C26.7078437 43.74470676 25.33288668 41.19339076 24 38 C23.11862935 36.61793418 22.21415796 35.24978327 21.26953125 33.91015625 C20.44728025 32.6296793 19.62830667 31.3470923 18.8125 30.0625 C17.88582469 28.61562401 16.95872109 27.16902226 16.03125 25.72265625 C15.54785156 24.96742676 15.06445312 24.21219727 14.56640625 23.43408203 C12.85845651 20.78005165 11.13412996 18.13718958 9.40625 15.49609375 C8.8083667 14.58142334 8.2104834 13.66675293 7.59448242 12.72436523 C6.41905555 10.92732613 5.24216641 9.13124252 4.0637207 7.33618164 C3.53351318 6.5239917 3.00330566 5.71180176 2.45703125 4.875 C1.98241455 4.15054688 1.50779785 3.42609375 1.01879883 2.6796875 C0 1 0 1 0 0 Z " fill="#F2F6F8" transform="translate(87,231)"/>
<path d="M0 0 C5.29373874 0.30208011 10.58218913 0.39426702 15.88320637 0.47923374 C22.23499584 0.5889054 28.58151244 0.80692665 34.92974854 1.0413208 C36.12680231 1.07867403 37.32385609 1.11602726 38.55718422 1.15451241 C58.3171915 1.899621 58.3171915 1.899621 62.83981323 6.14393616 C64.9021673 8.92953438 66.29482302 11.47689996 67.62896729 14.66241455 C68.45304166 15.9919662 69.29649182 17.31016361 70.17584229 18.6038208 C70.91382312 19.80865082 71.64818373 21.01570552 72.37896729 22.22491455 C76.66509427 29.21266262 81.16847583 36.03553376 85.7822876 42.81109619 C86.26923096 43.53160156 86.75617432 44.25210693 87.25787354 44.9944458 C87.69172363 45.63100098 88.12557373 46.26755615 88.5725708 46.92340088 C89.62896729 48.66241455 89.62896729 48.66241455 90.62896729 51.66241455 C32.54896729 51.66241455 -25.53103271 51.66241455 -85.37103271 51.66241455 C-84.71103271 50.34241455 -84.05103271 49.02241455 -83.37103271 47.66241455 C-82.71211904 46.18479398 -82.05784732 44.70509815 -81.40724182 43.22380066 C-63.00942997 2.70047776 -42.68570314 -2.84633438 0 0 Z " fill="#F2F6F8" transform="translate(259.37103271484375,417.33758544921875)"/>
<path d="M0 0 C3.30306332 1.93091282 6.08087737 4.41736723 8.82421875 7.06640625 C9.23671875 6.66808594 9.64921875 6.26976562 10.07421875 5.859375 C17.17155837 -0.65180041 23.28481131 -2.52246116 32.9296875 -2.20703125 C39.35016821 -1.60050811 43.21135476 0.05913996 47.63671875 4.81640625 C52.707799 11.11193868 54.9309356 17.73444624 54.96948242 25.82495117 C54.97586227 26.73907272 54.98224213 27.65319427 54.98881531 28.59501648 C54.98992813 29.56912979 54.99104095 30.5432431 54.9921875 31.546875 C54.9971801 33.06067497 54.9971801 33.06067497 55.00227356 34.60505676 C55.00732572 36.73238673 55.00968241 38.85972459 55.00952148 40.98706055 C55.01171785 44.25257204 55.02991861 47.51775092 55.04882812 50.78320312 C55.05176035 52.85025926 55.05374629 54.917317 55.0546875 56.984375 C55.06187302 57.964561 55.06905853 58.94474701 55.07646179 59.95463562 C55.07338516 60.85930069 55.07030853 61.76396576 55.06713867 62.69604492 C55.06856369 63.49370773 55.06998871 64.29137054 55.07145691 65.11320496 C54.82421875 67.06640625 54.82421875 67.06640625 52.82421875 69.06640625 C50.51171875 69.33203125 50.51171875 69.33203125 47.82421875 69.31640625 C46.49390625 69.32414062 46.49390625 69.32414062 45.13671875 69.33203125 C42.82421875 69.06640625 42.82421875 69.06640625 40.82421875 67.06640625 C40.61436004 64.08928373 40.52305322 61.19785113 40.515625 58.21875 C40.49044176 56.39778358 40.46504412 54.57682011 40.43945312 52.75585938 C40.41084167 49.88811169 40.3868276 47.02041606 40.36791992 44.15258789 C40.346087 41.38268574 40.30660989 38.61342575 40.265625 35.84375 C40.26545128 34.57760109 40.26545128 34.57760109 40.26527405 33.28587341 C40.15309239 26.44236905 39.1879027 19.83529317 34.63671875 14.50390625 C30.95900486 12.62418582 27.82421038 12.29778041 23.82421875 13.06640625 C18.89168337 15.48614059 16.79826835 17.97543623 14.82421875 23.06640625 C13.61215962 27.69065806 13.63849323 32.26756032 13.578125 37.015625 C13.54521733 38.7675837 13.51200522 40.5195367 13.47851562 42.27148438 C13.43092708 45.02348298 13.3864134 47.77545358 13.34741211 50.52758789 C13.30784404 53.19049529 13.2563011 55.85295956 13.203125 58.515625 C13.19471085 59.34269455 13.18629669 60.1697641 13.17762756 61.02189636 C13.0509875 66.8396375 13.0509875 66.8396375 10.82421875 69.06640625 C8.51171875 69.33203125 8.51171875 69.33203125 5.82421875 69.31640625 C4.49390625 69.32414062 4.49390625 69.32414062 3.13671875 69.33203125 C0.82421875 69.06640625 0.82421875 69.06640625 -1.17578125 67.06640625 C-1.42733765 65.25401306 -1.42733765 65.25401306 -1.43115234 63.03491211 C-1.43811127 62.20322006 -1.44507019 61.37152802 -1.45223999 60.51463318 C-1.45124298 59.61261673 -1.45024597 58.71060028 -1.44921875 57.78125 C-1.46952572 55.86913496 -1.49037681 53.95702564 -1.51171875 52.04492188 C-1.53422504 49.03225912 -1.55075013 46.01982274 -1.55664062 43.00708008 C-1.56623109 40.09805301 -1.60010731 37.19004577 -1.63671875 34.28125 C-1.63167328 33.39340317 -1.62662781 32.50555634 -1.62142944 31.59080505 C-1.71497482 25.56927396 -2.6886194 20.11515522 -6.17578125 15.06640625 C-10.16382464 12.62515842 -13.61971092 12.64280467 -18.17578125 13.06640625 C-21.71133946 13.9502958 -22.26802483 15.20345385 -24.36328125 18.31640625 C-27.66233383 24.04703144 -27.33974835 30.69448761 -27.421875 37.11328125 C-27.45477605 38.86198488 -27.48798825 40.61068267 -27.52148438 42.359375 C-27.56910052 45.10038726 -27.61363598 47.84136981 -27.65258789 50.58251953 C-27.69214602 53.23883615 -27.74368229 55.89470768 -27.796875 58.55078125 C-27.80528915 59.37471375 -27.81370331 60.19864624 -27.82237244 61.04754639 C-27.94898818 66.83961318 -27.94898818 66.83961318 -30.17578125 69.06640625 C-32.48828125 69.33203125 -32.48828125 69.33203125 -35.17578125 69.31640625 C-36.50609375 69.32414062 -36.50609375 69.32414062 -37.86328125 69.33203125 C-40.17578125 69.06640625 -40.17578125 69.06640625 -42.17578125 67.06640625 C-42.42974854 64.33374023 -42.42974854 64.33374023 -42.43457031 60.8125 C-42.44087463 59.49773682 -42.44717896 58.18297363 -42.45367432 56.82836914 C-42.45009465 55.38688015 -42.44599271 53.94539238 -42.44140625 52.50390625 C-42.44275293 51.03181901 -42.44469348 49.5597322 -42.44720459 48.08764648 C-42.45015574 45.00077077 -42.44585857 41.91401072 -42.43652344 38.82714844 C-42.42512881 34.86568496 -42.43168834 30.90449247 -42.44366837 26.94303894 C-42.45088725 23.90277048 -42.44859893 20.86256652 -42.44341278 17.82229614 C-42.44207636 16.36141935 -42.44372375 14.90053675 -42.44837189 13.43966675 C-42.45343731 11.3998831 -42.44435104 9.36007899 -42.43457031 7.3203125 C-42.43218353 5.57729858 -42.43218353 5.57729858 -42.42974854 3.79907227 C-42.17578125 1.06640625 -42.17578125 1.06640625 -40.17578125 -0.93359375 C-37.57421875 -1.12890625 -37.57421875 -1.12890625 -34.55078125 -1.05859375 C-33.04644531 -1.03152344 -33.04644531 -1.03152344 -31.51171875 -1.00390625 C-30.74085938 -0.98070312 -29.97 -0.9575 -29.17578125 -0.93359375 C-29.17578125 0.71640625 -29.17578125 2.36640625 -29.17578125 4.06640625 C-28.63308594 3.71707031 -28.09039063 3.36773437 -27.53125 3.0078125 C-26.45810547 2.32525391 -26.45810547 2.32525391 -25.36328125 1.62890625 C-24.65558594 1.17644531 -23.94789063 0.72398437 -23.21875 0.2578125 C-16.53300528 -3.64113996 -6.96683306 -3.02334265 0 0 Z " fill="#F2F6F8" transform="translate(646.17578125,316.93359375)"/>
<path d="M0 0 C1.03437447 -0.00525696 1.03437447 -0.00525696 2.08964539 -0.01062012 C4.37431843 -0.01943923 6.65868306 -0.01358781 8.94335938 -0.00683594 C10.52754781 -0.00818254 12.11173584 -0.01012303 13.69592285 -0.01263428 C17.01818776 -0.01558578 20.34034522 -0.01128711 23.66259766 -0.00195312 C27.92672528 0.00944149 32.19060116 0.00288214 36.45471954 -0.00909805 C39.72660223 -0.01631599 42.99842498 -0.01402904 46.27030945 -0.00884247 C47.84282969 -0.00750578 49.41535532 -0.00915435 50.98786926 -0.01380157 C53.1834663 -0.01886579 55.37865241 -0.01115843 57.57421875 0 C59.45046936 0.00238678 59.45046936 0.00238678 61.36462402 0.00482178 C64.28710938 0.25878906 64.28710938 0.25878906 66.28710938 2.25878906 C68.13862638 10.95792577 69.75926167 23.86171265 64.75195312 31.64501953 C60.48200878 35.89055813 55.29506525 38.71887163 50.06298828 41.62353516 C45.32301759 44.41582396 41.09925072 47.85677827 36.78710938 51.25878906 C31.53408767 55.32937819 26.25928406 59.31712708 20.77148438 63.06738281 C19.89169922 63.67904297 19.01191406 64.29070312 18.10546875 64.92089844 C16.44040145 66.07188412 14.7599793 67.20108626 13.0625 68.30371094 C12.31677734 68.82384766 11.57105469 69.34398437 10.80273438 69.87988281 C10.14563477 70.31743896 9.48853516 70.75499512 8.81152344 71.20581055 C6.366011 74.49926251 6.49325542 78.25094101 6.28710938 82.25878906 C7.02182465 82.25434784 7.75653992 82.24990662 8.51351929 82.24533081 C15.42946305 82.20529631 22.34538955 82.17482619 29.2614193 82.15516472 C32.81723336 82.14471682 36.37295187 82.13053947 39.92871094 82.10791016 C44.01433238 82.08207074 48.09985307 82.07232462 52.18554688 82.06347656 C53.46577728 82.05315399 54.74600769 82.04283142 56.06503296 82.03219604 C57.24610626 82.03204498 58.42717957 82.03189392 59.64404297 82.03173828 C60.68773041 82.02729706 61.73141785 82.02285583 62.80673218 82.01828003 C65.28710938 82.25878906 65.28710938 82.25878906 67.28710938 84.25878906 C67.55273438 86.57128906 67.55273438 86.57128906 67.53710938 89.25878906 C67.54484375 90.58910156 67.54484375 90.58910156 67.55273438 91.94628906 C67.28710938 94.25878906 67.28710938 94.25878906 65.28710938 96.25878906 C62.32666016 96.51275635 62.32666016 96.51275635 58.48242188 96.51757812 C57.78308533 96.52108276 57.08374878 96.5245874 56.36322021 96.52819824 C54.046083 96.53701782 51.72924983 96.53116576 49.41210938 96.52441406 C47.8055007 96.52576065 46.19889243 96.52770113 44.59228516 96.5302124 C41.22294236 96.53316397 37.8537055 96.52886503 34.484375 96.51953125 C30.15971443 96.50813664 25.83530209 96.51469595 21.51065063 96.52667618 C18.19244507 96.53389394 14.87429862 96.53160725 11.55609131 96.52642059 C9.96124238 96.52508386 8.36638813 96.52673264 6.77154541 96.5313797 C4.54481739 96.53644362 2.31849461 96.52873695 0.09179688 96.51757812 C-1.17680176 96.51598694 -2.44540039 96.51439575 -3.75244141 96.51275635 C-6.71289062 96.25878906 -6.71289062 96.25878906 -8.71289062 94.25878906 C-10.07571544 85.25088982 -11.92947763 71.05496748 -6.7019043 63.26025391 C-4.48215759 60.96821886 -2.44983144 59.6974133 0.39111328 58.29248047 C4.30615957 56.15800893 7.74413534 53.26276388 11.28710938 50.57128906 C12.92759113 49.3644206 14.57086985 48.16134563 16.21679688 46.96191406 C21.28919977 43.25825481 26.35283205 39.54285405 31.41210938 35.82128906 C32.16878906 35.26675049 32.92546875 34.71221191 33.70507812 34.14086914 C38.36697284 30.71382154 42.93117679 27.19227243 47.43505859 23.55932617 C49.28710938 22.25878906 49.28710938 22.25878906 51.28710938 22.25878906 C51.28710938 19.61878906 51.28710938 16.97878906 51.28710938 14.25878906 C50.56492218 14.26323029 49.84273499 14.26767151 49.09866333 14.27224731 C42.30044915 14.31228281 35.50225254 14.34275244 28.70395088 14.36241341 C25.2086701 14.37286104 21.71348654 14.3870379 18.21826172 14.40966797 C14.20213882 14.43550859 10.18611841 14.44525372 6.16992188 14.45410156 C4.28238693 14.46958542 4.28238693 14.46958542 2.35671997 14.48538208 C1.19566742 14.48553314 0.03461487 14.4856842 -1.16162109 14.48583984 C-2.18754364 14.49028107 -3.21346619 14.49472229 -4.27047729 14.4992981 C-6.71289062 14.25878906 -6.71289062 14.25878906 -8.71289062 12.25878906 C-8.97851562 9.94628906 -8.97851562 9.94628906 -8.96289062 7.25878906 C-8.96804688 6.37191406 -8.97320312 5.48503906 -8.97851562 4.57128906 C-8.36103457 -0.80442837 -4.45824716 0.00567134 0 0 Z " fill="#F2F6F8" transform="translate(447.712890625,289.7412109375)"/>
<path d="M0 0 C7.37389347 4.92966063 10.04686618 11.49997353 12.78515625 19.71484375 C12.78515625 24.99484375 12.78515625 30.27484375 12.78515625 35.71484375 C-4.04484375 35.71484375 -20.87484375 35.71484375 -38.21484375 35.71484375 C-33.63094445 45.54386611 -33.63094445 45.54386611 -26.02734375 50.96484375 C-19.2792074 52.76434678 -13.08460373 52.43291711 -6.95703125 49 C-5.14143201 47.66069025 -3.90683111 46.30525448 -2.52734375 44.52734375 C-0.21484375 41.71484375 -0.21484375 41.71484375 2.16015625 40.40234375 C6.05069836 40.86550352 7.87380165 42.97279337 10.44921875 45.8125 C11.78515625 47.71484375 11.78515625 47.71484375 12.03515625 50.27734375 C7.80691566 58.5224129 0.88345427 62.55787151 -7.46484375 66.08984375 C-19.54060021 68.10246983 -30.2790577 66.98222975 -40.52734375 60.02734375 C-47.51080738 54.31750361 -51.75270469 46.57226466 -53.21484375 37.71484375 C-54.25546392 25.9339957 -52.90251555 15.11088706 -45.21484375 5.71484375 C-32.95670377 -7.50414805 -15.2716855 -8.86134838 0 0 Z M-34.65234375 15.15234375 C-36.55917437 17.94992789 -36.55917437 17.94992789 -37.21484375 22.71484375 C-25.33484375 22.71484375 -13.45484375 22.71484375 -1.21484375 22.71484375 C-3.27396882 15.70058148 -3.27396882 15.70058148 -7.71484375 11.77734375 C-8.30265625 11.39707031 -8.89046875 11.01679688 -9.49609375 10.625 C-18.21343038 6.00877401 -27.94540771 8.44540771 -34.65234375 15.15234375 Z " fill="#F2F6F8" transform="translate(1183.21484375,320.28515625)"/>
<path d="M0 0 C7.37389347 4.92966063 10.04686618 11.49997353 12.78515625 19.71484375 C12.78515625 24.99484375 12.78515625 30.27484375 12.78515625 35.71484375 C-4.04484375 35.71484375 -20.87484375 35.71484375 -38.21484375 35.71484375 C-33.63094445 45.54386611 -33.63094445 45.54386611 -26.02734375 50.96484375 C-19.2792074 52.76434678 -13.08460373 52.43291711 -6.95703125 49 C-5.14143201 47.66069025 -3.90683111 46.30525448 -2.52734375 44.52734375 C-0.21484375 41.71484375 -0.21484375 41.71484375 2.16015625 40.40234375 C6.05069836 40.86550352 7.87380165 42.97279337 10.44921875 45.8125 C11.78515625 47.71484375 11.78515625 47.71484375 12.03515625 50.27734375 C7.80691566 58.5224129 0.88345427 62.55787151 -7.46484375 66.08984375 C-19.54060021 68.10246983 -30.2790577 66.98222975 -40.52734375 60.02734375 C-47.51080738 54.31750361 -51.75270469 46.57226466 -53.21484375 37.71484375 C-54.25546392 25.9339957 -52.90251555 15.11088706 -45.21484375 5.71484375 C-32.95670377 -7.50414805 -15.2716855 -8.86134838 0 0 Z M-34.65234375 15.15234375 C-36.55917437 17.94992789 -36.55917437 17.94992789 -37.21484375 22.71484375 C-25.33484375 22.71484375 -13.45484375 22.71484375 -1.21484375 22.71484375 C-3.27396882 15.70058148 -3.27396882 15.70058148 -7.71484375 11.77734375 C-8.30265625 11.39707031 -8.89046875 11.01679688 -9.49609375 10.625 C-18.21343038 6.00877401 -27.94540771 8.44540771 -34.65234375 15.15234375 Z " fill="#F2F6F8" transform="translate(764.21484375,320.28515625)"/>
<path d="M0 0 C7.37389347 4.92966063 10.04686618 11.49997353 12.78515625 19.71484375 C12.78515625 24.99484375 12.78515625 30.27484375 12.78515625 35.71484375 C-4.04484375 35.71484375 -20.87484375 35.71484375 -38.21484375 35.71484375 C-33.63094445 45.54386611 -33.63094445 45.54386611 -26.02734375 50.96484375 C-19.2792074 52.76434678 -13.08460373 52.43291711 -6.95703125 49 C-5.14143201 47.66069025 -3.90683111 46.30525448 -2.52734375 44.52734375 C-0.21484375 41.71484375 -0.21484375 41.71484375 2.16015625 40.40234375 C6.05069836 40.86550352 7.87380165 42.97279337 10.44921875 45.8125 C11.78515625 47.71484375 11.78515625 47.71484375 12.03515625 50.27734375 C7.80691566 58.5224129 0.88345427 62.55787151 -7.46484375 66.08984375 C-19.54060021 68.10246983 -30.2790577 66.98222975 -40.52734375 60.02734375 C-47.51080738 54.31750361 -51.75270469 46.57226466 -53.21484375 37.71484375 C-54.25546392 25.9339957 -52.90251555 15.11088706 -45.21484375 5.71484375 C-32.95670377 -7.50414805 -15.2716855 -8.86134838 0 0 Z M-34.65234375 15.15234375 C-36.55917437 17.94992789 -36.55917437 17.94992789 -37.21484375 22.71484375 C-25.33484375 22.71484375 -13.45484375 22.71484375 -1.21484375 22.71484375 C-3.27396882 15.70058148 -3.27396882 15.70058148 -7.71484375 11.77734375 C-8.30265625 11.39707031 -8.89046875 11.01679688 -9.49609375 10.625 C-18.21343038 6.00877401 -27.94540771 8.44540771 -34.65234375 15.15234375 Z " fill="#F2F6F8" transform="translate(577.21484375,320.28515625)"/>
<path d="M0 0 C1.55170898 -0.00945648 1.55170898 -0.00945648 3.13476562 -0.019104 C4.81602539 -0.01303131 4.81602539 -0.01303131 6.53125 -0.00683594 C8.25118164 -0.00970612 8.25118164 -0.00970612 10.00585938 -0.01263428 C12.43359598 -0.01399715 14.86133984 -0.01029361 17.2890625 -0.00195312 C21.01579073 0.00874469 24.74203686 -0.00184525 28.46875 -0.01464844 C30.82291774 -0.01332686 33.17708517 -0.01076451 35.53125 -0.00683594 C36.65208984 -0.0108844 37.77292969 -0.01493286 38.92773438 -0.019104 C39.96220703 -0.01279968 40.99667969 -0.00649536 42.0625 0 C43.43245117 0.00238678 43.43245117 0.00238678 44.83007812 0.00482178 C47.03125 0.25878906 47.03125 0.25878906 49.03125 2.25878906 C49.28521729 4.99145508 49.28521729 4.99145508 49.29003906 8.51269531 C49.29634338 9.8274585 49.30264771 11.14222168 49.30914307 12.49682617 C49.3055634 13.93831516 49.30146146 15.37980293 49.296875 16.82128906 C49.29822168 18.2933763 49.30016223 19.76546311 49.30267334 21.23754883 C49.30562449 24.32442454 49.30132732 27.41118459 49.29199219 30.49804688 C49.28059756 34.45951035 49.28715709 38.42070284 49.29913712 42.38215637 C49.306356 45.42242483 49.30406768 48.46262879 49.29888153 51.50289917 C49.29754511 52.96377596 49.2991925 54.42465856 49.30384064 55.88552856 C49.30890606 57.92531221 49.29981979 59.96511632 49.29003906 62.00488281 C49.28844788 63.16689209 49.28685669 64.32890137 49.28521729 65.52612305 C49.03125 68.25878906 49.03125 68.25878906 47.03125 70.25878906 C44.4296875 70.45410156 44.4296875 70.45410156 41.40625 70.38378906 C40.40335938 70.36574219 39.40046875 70.34769531 38.3671875 70.32910156 C37.59632813 70.30589844 36.82546875 70.28269531 36.03125 70.25878906 C36.03125 68.60878906 36.03125 66.95878906 36.03125 65.25878906 C35.28359375 65.608125 34.5359375 65.95746094 33.765625 66.31738281 C32.78078125 66.77242188 31.7959375 67.22746094 30.78125 67.69628906 C29.80671875 68.14875 28.8321875 68.60121094 27.828125 69.06738281 C19.68761537 72.535058 10.23072022 72.45494193 1.99609375 69.22363281 C-3.78774317 66.38345842 -6.93995061 62.65797162 -9.27734375 56.79003906 C-10.89522552 50.8669465 -10.59610783 45.34998182 -8.84375 39.50878906 C-2.85198296 29.12305953 5.50942818 24.57623278 17.03125 21.44628906 C22.98380609 20.10775132 28.94654466 19.57165512 35.03125 19.25878906 C35.03125 17.27878906 35.03125 15.29878906 35.03125 13.25878906 C33.17608765 13.26664429 33.17608765 13.26664429 31.28344727 13.2746582 C26.71200275 13.29270468 22.14056141 13.30421977 17.5690918 13.3137207 C15.58731559 13.31876174 13.60554311 13.32559444 11.6237793 13.33422852 C8.78172891 13.34630421 5.93972753 13.35201951 3.09765625 13.35644531 C1.76016075 13.36418724 1.76016075 13.36418724 0.39564514 13.37208557 C-1.72615601 13.37228083 -3.8478578 13.32088936 -5.96875 13.25878906 C-7.63436399 11.59317507 -7.13990945 9.59916201 -7.15625 7.32128906 C-7.17042969 6.42539062 -7.18460938 5.52949219 -7.19921875 4.60644531 C-6.73758258 -0.09598417 -4.04244123 0.00704289 0 0 Z M6.59375 41.07128906 C4.35618295 44.20388293 4.03125 46.42365282 4.03125 50.25878906 C5.79629774 54.00069028 7.10543157 55.77483852 10.78125 57.69628906 C17.64339263 58.88396759 22.59268963 57.63389383 28.26953125 53.78613281 C32.08128037 50.48149001 34.07106501 46.17973713 35.03125 41.25878906 C35.09673492 39.67667333 35.11703381 38.09208826 35.09375 36.50878906 C35.08472656 35.70957031 35.07570313 34.91035156 35.06640625 34.08691406 C35.05480469 33.48363281 35.04320312 32.88035156 35.03125 32.25878906 C25.0755791 32.25878906 14.54643993 35.15775039 6.59375 41.07128906 Z " fill="#F2F6F8" transform="translate(871.96875,315.7412109375)"/>
<path d="M0 0 C4.33573347 -0.41796916 8.6501246 -0.12793751 13 0 C16.62576976 9.24748443 20.21028469 18.50752922 23.67578125 27.81640625 C24.28186318 29.43946726 24.88798297 31.06251414 25.49414062 32.68554688 C26.41698858 35.15750547 27.33752916 37.63022636 28.25219727 40.10522461 C29.15778615 42.55307452 30.07217741 44.99747563 30.98828125 47.44140625 C31.39920769 48.5629586 31.39920769 48.5629586 31.81843567 49.70716858 C33.03392835 53.56367011 33.03392835 53.56367011 36 56 C36.11419281 55.332603 36.22838562 54.66520599 36.34603882 53.97758484 C37.52408493 47.27605285 38.96231235 40.6845168 40.6015625 34.08203125 C40.9635524 32.60714485 40.9635524 32.60714485 41.33285522 31.10246277 C42.09381636 28.0050392 42.85932297 24.90876079 43.625 21.8125 C44.14613621 19.69473597 44.66697224 17.57689804 45.1875 15.45898438 C46.45486917 10.30513144 47.72595804 5.15220722 49 0 C51.12472576 -0.05386629 53.24983652 -0.09273071 55.375 -0.125 C56.55835938 -0.14820313 57.74171875 -0.17140625 58.9609375 -0.1953125 C62 0 62 0 64 2 C64.15482576 7.94964709 62.42432987 14.00697792 60.95874023 19.73266602 C60.75376923 20.55328018 60.54879822 21.37389435 60.33761597 22.21937561 C59.66685052 24.89898754 58.9878052 27.57642394 58.30859375 30.25390625 C57.8386824 32.12421446 57.3692945 33.99465425 56.90040588 35.86521912 C55.67099463 40.76386653 54.43452486 45.66070501 53.1965332 50.55718994 C51.9320593 55.5637379 50.6743291 60.57197901 49.41601562 65.58007812 C46.95057528 75.38837932 44.47766824 85.19478111 42 95 C37.33692986 95.04937279 32.67401127 95.08570627 28.01074219 95.10986328 C26.42380117 95.11993188 24.83687875 95.13358767 23.25 95.15087891 C20.97130753 95.17509001 18.69285994 95.18647422 16.4140625 95.1953125 C15.70255035 95.20563507 14.99103821 95.21595764 14.25796509 95.22659302 C12.50368335 95.22699422 10.75003291 95.12202209 9 95 C7 93 7 93 6.734375 90.90625 C6.73953125 90.1121875 6.7446875 89.318125 6.75 88.5 C6.74484375 87.7059375 6.7396875 86.911875 6.734375 86.09375 C7 84 7 84 9 82 C11.06298828 81.68115234 11.06298828 81.68115234 13.5703125 81.5859375 C14.46621094 81.54726563 15.36210938 81.50859375 16.28515625 81.46875 C17.22230469 81.4378125 18.15945313 81.406875 19.125 81.375 C20.06988281 81.33632813 21.01476562 81.29765625 21.98828125 81.2578125 C24.3251935 81.1633918 26.6625703 81.08060102 29 81 C30.485 75.555 30.485 75.555 32 70 C29.03 69.67 26.06 69.34 23 69 C19.68911011 61.13536226 16.48357854 53.2379072 13.390625 45.28515625 C12.97834656 44.22638779 12.56606812 43.16761932 12.14129639 42.07676697 C11.28006793 39.86293725 10.41966278 37.64878708 9.56005859 35.43432617 C8.2432555 32.04514102 6.92050301 28.6583144 5.59765625 25.27148438 C4.75744637 23.10951725 3.9175899 20.94741275 3.078125 18.78515625 C2.68336975 17.77679214 2.2886145 16.76842804 1.88189697 15.72950745 C1.51771667 14.78760056 1.15353638 13.84569366 0.77832031 12.87524414 C0.45808899 12.05206192 0.13785767 11.2288797 -0.19207764 10.38075256 C-1.03746508 7.88959943 -1.71003747 5.61856692 -2 3 C-1.34 2.01 -0.68 1.02 0 0 Z " fill="#F2F6F8" transform="translate(932,316)"/>
<path d="M0 0 C0.9796875 0.00515625 1.959375 0.0103125 2.96875 0.015625 C3.9484375 0.01046875 4.928125 0.0053125 5.9375 0 C8.46875 0.265625 8.46875 0.265625 10.46875 2.265625 C10.78759766 5.15478516 10.78759766 5.15478516 10.8828125 8.8046875 C10.92148438 10.10664063 10.96015625 11.40859375 11 12.75 C11.03145763 14.13020362 11.06270491 15.51041204 11.09375 16.890625 C11.13192934 18.27867041 11.17098105 19.66669211 11.2109375 21.0546875 C11.30547943 24.45819685 11.39102897 27.86169665 11.46875 31.265625 C12.12101562 30.98267578 12.77328125 30.69972656 13.4453125 30.40820312 C22.16360029 26.74986555 29.63040463 25.65517073 38.78125 28.765625 C45.83817135 32.0165663 49.90110677 37.16464203 52.63525391 44.35131836 C54.6409646 50.11259983 55.02201393 55.27280976 54.9296875 61.33203125 C54.92831284 62.83309669 54.92831284 62.83309669 54.9269104 64.36448669 C54.92091981 66.45601209 54.90531288 68.54753077 54.88037109 70.63891602 C54.84348283 73.85139175 54.83935502 77.06272357 54.83984375 80.27539062 C54.83002503 82.3151142 54.8183735 84.35482996 54.8046875 86.39453125 C54.80246185 87.35589493 54.80023621 88.31725861 54.79794312 89.30775452 C54.78518341 90.19305344 54.77242371 91.07835236 54.75927734 91.99047852 C54.74784195 93.15982689 54.74784195 93.15982689 54.73617554 94.35279846 C54.46875 96.265625 54.46875 96.265625 52.46875 98.265625 C50.15625 98.53125 50.15625 98.53125 47.46875 98.515625 C46.1384375 98.52335937 46.1384375 98.52335937 44.78125 98.53125 C42.46875 98.265625 42.46875 98.265625 40.46875 96.265625 C40.25897751 93.36071967 40.16759401 90.54362109 40.16015625 87.63671875 C40.13497226 85.86132518 40.10957463 84.08593463 40.08398438 82.31054688 C40.05537838 79.51522784 40.03136391 76.71996205 40.01245117 73.92456055 C39.99060979 71.22415018 39.95113171 68.52439715 39.91015625 65.82421875 C39.91004044 65.00199326 39.90992462 64.17976776 39.9098053 63.33262634 C39.81171644 57.49606158 38.55158704 52.69754658 36.46875 47.265625 C36.13875 46.275625 35.80875 45.285625 35.46875 44.265625 C31.15388799 41.70367568 26.33764954 41.58604362 21.46875 42.265625 C16.02973366 44.83119875 13.96066246 48.00492092 11.46875 53.265625 C10.23920973 57.80174855 10.28360958 62.32973821 10.22265625 66.99609375 C10.18974914 68.70247969 10.15653702 70.40885978 10.12304688 72.11523438 C10.07545721 74.79480364 10.0309412 77.47434402 9.99194336 80.15405273 C9.95237276 82.74746745 9.90083139 85.34042741 9.84765625 87.93359375 C9.8392421 88.73878952 9.83082794 89.54398529 9.82215881 90.37358093 C9.69552137 96.03885363 9.69552137 96.03885363 7.46875 98.265625 C5.15625 98.53125 5.15625 98.53125 2.46875 98.515625 C1.1384375 98.52335937 1.1384375 98.52335937 -0.21875 98.53125 C-2.53125 98.265625 -2.53125 98.265625 -4.53125 96.265625 C-4.73011124 93.29355506 -4.80389641 90.41463469 -4.79003906 87.44140625 C-4.7935437 86.52749115 -4.79704834 85.61357605 -4.80065918 84.67196655 C-4.80948649 81.64060955 -4.80362381 78.60948452 -4.796875 75.578125 C-4.79822136 73.47827103 -4.80016165 71.37841736 -4.80267334 69.27856445 C-4.80562596 64.87350502 -4.80132251 60.46852659 -4.79199219 56.06347656 C-4.78059761 50.40708469 -4.78715634 44.75088259 -4.79913712 39.09449768 C-4.80635198 34.75718751 -4.8040695 30.41992259 -4.79888153 26.08261108 C-4.797544 23.99653094 -4.79919635 21.91044674 -4.80384064 19.82437134 C-4.80889973 16.91275086 -4.80120432 14.001441 -4.79003906 11.08984375 C-4.79408752 10.22120697 -4.79813599 9.35257019 -4.80230713 8.45761108 C-4.74554174 0.49798895 -4.74554174 0.49798895 0 0 Z " fill="#F2F6F8" transform="translate(1287.53125,287.734375)"/>
<path d="M0 0 C7.66316868 4.76249743 10.91393724 11.91934741 13.21875 20.37890625 C13.70490056 24.08569067 13.73658851 27.71099913 13.6796875 31.4453125 C13.67831284 32.94637794 13.67831284 32.94637794 13.6769104 34.47776794 C13.67091981 36.56929334 13.65531288 38.66081202 13.63037109 40.75219727 C13.59348283 43.964673 13.58935502 47.17600482 13.58984375 50.38867188 C13.58002503 52.42839545 13.5683735 54.46811121 13.5546875 56.5078125 C13.55246185 57.46917618 13.55023621 58.43053986 13.54794312 59.42103577 C13.53518341 60.30633469 13.52242371 61.19163361 13.50927734 62.10375977 C13.49784195 63.27310814 13.49784195 63.27310814 13.48617554 64.46607971 C13.21875 66.37890625 13.21875 66.37890625 11.21875 68.37890625 C8.90625 68.64453125 8.90625 68.64453125 6.21875 68.62890625 C4.8884375 68.63664062 4.8884375 68.63664062 3.53125 68.64453125 C1.21875 68.37890625 1.21875 68.37890625 -0.78125 66.37890625 C-0.99102249 63.47400092 -1.08240599 60.65690234 -1.08984375 57.75 C-1.11502774 55.97460643 -1.14042537 54.19921588 -1.16601562 52.42382812 C-1.19462162 49.62850909 -1.21863609 46.8332433 -1.23754883 44.0378418 C-1.25939021 41.33743143 -1.29886829 38.6376784 -1.33984375 35.9375 C-1.33995956 35.11527451 -1.34007538 34.29304901 -1.3401947 33.44590759 C-1.45317308 26.72337424 -2.46921948 20.18136748 -6.84375 14.87890625 C-10.90957554 11.73117035 -14.7866712 11.76509438 -19.78125 12.37890625 C-23.68473985 14.40293802 -26.63388504 16.51364932 -28.78125 20.37890625 C-30.49172542 26.16875488 -31.08448735 31.38629264 -31.125 37.40234375 C-31.1396228 38.22973053 -31.15424561 39.05711731 -31.16931152 39.90957642 C-31.23114749 43.41694396 -31.27142078 46.92447152 -31.31298828 50.43212891 C-31.34660839 53.00572491 -31.39170126 55.57894042 -31.4375 58.15234375 C-31.4427771 58.94812836 -31.4480542 59.74391296 -31.45349121 60.56381226 C-31.55552701 66.15318326 -31.55552701 66.15318326 -33.78125 68.37890625 C-36.09375 68.64453125 -36.09375 68.64453125 -38.78125 68.62890625 C-40.1115625 68.63664062 -40.1115625 68.63664062 -41.46875 68.64453125 C-43.78125 68.37890625 -43.78125 68.37890625 -45.78125 66.37890625 C-46.03521729 63.64624023 -46.03521729 63.64624023 -46.04003906 60.125 C-46.04634338 58.81023682 -46.05264771 57.49547363 -46.05914307 56.14086914 C-46.0555634 54.69938015 -46.05146146 53.25789238 -46.046875 51.81640625 C-46.04822168 50.34431901 -46.05016223 48.8722322 -46.05267334 47.40014648 C-46.05562449 44.31327077 -46.05132732 41.22651072 -46.04199219 38.13964844 C-46.03059756 34.17818496 -46.03715709 30.21699247 -46.04913712 26.25553894 C-46.056356 23.21527048 -46.05406768 20.17506652 -46.04888153 17.13479614 C-46.04754511 15.67391935 -46.0491925 14.21303675 -46.05384064 12.75216675 C-46.05890606 10.7123831 -46.04981979 8.67257899 -46.04003906 6.6328125 C-46.03765228 4.88979858 -46.03765228 4.88979858 -46.03521729 3.11157227 C-45.78125 0.37890625 -45.78125 0.37890625 -43.78125 -1.62109375 C-41.1796875 -1.81640625 -41.1796875 -1.81640625 -38.15625 -1.74609375 C-36.65191406 -1.71902344 -36.65191406 -1.71902344 -35.1171875 -1.69140625 C-34.34632813 -1.66820312 -33.57546875 -1.645 -32.78125 -1.62109375 C-32.45125 0.02890625 -32.12125 1.67890625 -31.78125 3.37890625 C-31.23855469 3.02957031 -30.69585938 2.68023437 -30.13671875 2.3203125 C-29.42128906 1.86527344 -28.70585938 1.41023438 -27.96875 0.94140625 C-27.26105469 0.48894531 -26.55335938 0.03648437 -25.82421875 -0.4296875 C-18.28967196 -4.82363926 -7.64519184 -3.56196438 0 0 Z " fill="#F2F6F8" transform="translate(836.78125,317.62109375)"/>
<path d="M0 0 C1.03437447 -0.00525696 1.03437447 -0.00525696 2.08964539 -0.01062012 C4.37431843 -0.01943923 6.65868306 -0.01358781 8.94335938 -0.00683594 C10.52754781 -0.00818254 12.11173584 -0.01012303 13.69592285 -0.01263428 C17.01818776 -0.01558578 20.34034522 -0.01128711 23.66259766 -0.00195312 C27.92672528 0.00944149 32.19060116 0.00288214 36.45471954 -0.00909805 C39.72660223 -0.01631599 42.99842498 -0.01402904 46.27030945 -0.00884247 C47.84282969 -0.00750578 49.41535532 -0.00915435 50.98786926 -0.01380157 C53.1834663 -0.01886579 55.37865241 -0.01115843 57.57421875 0 C59.45046936 0.00238678 59.45046936 0.00238678 61.36462402 0.00482178 C64.28710938 0.25878906 64.28710938 0.25878906 66.28710938 2.25878906 C66.55273438 4.57128906 66.55273438 4.57128906 66.53710938 7.25878906 C66.54484375 8.58910156 66.54484375 8.58910156 66.55273438 9.94628906 C66.28710938 12.25878906 66.28710938 12.25878906 64.28710938 14.25878906 C61.48974609 14.48583984 61.48974609 14.48583984 57.96679688 14.45410156 C56.08154297 14.44443359 56.08154297 14.44443359 54.15820312 14.43457031 C52.83949219 14.4178125 51.52078125 14.40105469 50.16210938 14.38378906 C48.82227217 14.37375889 47.48242786 14.3646331 46.14257812 14.35644531 C42.85724365 14.33280981 39.57226472 14.2998614 36.28710938 14.25878906 C36.2915506 15.25659393 36.29599182 16.2543988 36.30056763 17.28244019 C36.34105313 26.6707032 36.37106457 36.05894858 36.39073372 45.44727898 C36.40118563 50.27429712 36.41537042 55.10124497 36.43798828 59.92822266 C36.45966659 64.58364684 36.47166739 69.23900328 36.47686386 73.89447403 C36.48056865 75.67354525 36.48780286 77.45261262 36.49856949 79.23165512 C36.51301792 81.717182 36.51509013 84.20242639 36.51416016 86.68798828 C36.52135071 87.42885681 36.52854126 88.16972534 36.53594971 88.93304443 C36.5152137 94.03068474 36.5152137 94.03068474 34.28710938 96.25878906 C31.75585938 96.52441406 31.75585938 96.52441406 28.78710938 96.50878906 C27.80742188 96.51394531 26.82773438 96.51910156 25.81835938 96.52441406 C23.28710938 96.25878906 23.28710938 96.25878906 21.28710938 94.25878906 C21.09926455 91.69887004 21.03521132 89.24809266 21.06005859 86.68798828 C21.05976654 85.90741058 21.05947449 85.12683289 21.05917358 84.32260132 C21.0605697 81.73611429 21.07614396 79.14991342 21.09179688 76.56347656 C21.09552601 74.77271685 21.09837345 72.9819551 21.10037231 71.19119263 C21.10801663 66.47290434 21.12767193 61.75473876 21.14978027 57.03649902 C21.17022155 52.22389384 21.17937035 47.41126887 21.18945312 42.59863281 C21.2109171 33.15196425 21.24506263 23.70538685 21.28710938 14.25878906 C20.44937988 14.2692627 19.61165039 14.27973633 18.74853516 14.29052734 C15.64372774 14.32458925 12.53901545 14.34967817 9.43408203 14.36865234 C7.42799577 14.38367014 5.42199613 14.40907887 3.41601562 14.43457031 C2.15917969 14.44101562 0.90234375 14.44746094 -0.39257812 14.45410156 C-1.55515137 14.4645752 -2.71772461 14.47504883 -3.91552734 14.48583984 C-6.71289062 14.25878906 -6.71289062 14.25878906 -8.71289062 12.25878906 C-8.97851562 9.94628906 -8.97851562 9.94628906 -8.96289062 7.25878906 C-8.96804688 6.37191406 -8.97320313 5.48503906 -8.97851562 4.57128906 C-8.36103457 -0.80442837 -4.45824716 0.00567134 0 0 Z " fill="#F2F6F8" transform="translate(1066.712890625,289.7412109375)"/>
<path d="M0 0 C2.97932693 2.41241047 5.40476466 4.9796666 7.625 8.125 C6.64633662 9.27126322 5.66705413 10.41699788 4.6875 11.5625 C4.14222656 12.20058594 3.59695313 12.83867187 3.03515625 13.49609375 C0.78193601 16.098844 0.78193601 16.098844 -2 16.5625 C-6.2228276 16.01509642 -7.78319473 14.43151409 -10.76171875 11.53515625 C-14.39880009 8.35601252 -18.94569013 8.7953909 -23.515625 8.84375 C-29.10902515 9.39392051 -32.92051244 11.59396047 -36.75 15.625 C-40.80131938 21.85779904 -42.22795389 28.1916991 -40.94140625 35.6328125 C-39.00410101 42.09049664 -36.13345746 46.46992553 -30.25 50 C-24.32721448 52.17730409 -17.80494865 52.00861769 -11.9375 49.875 C-9.32781746 48.22731872 -9.32781746 48.22731872 -7.375 46 C-5.375 44.125 -5.375 44.125 -2.5625 42.875 C1.40250611 43.18598087 1.94280031 44.14367611 4.5 47.0625 C5.56109336 48.40149876 6.60908392 49.75140933 7.625 51.125 C4.72547585 57.70302493 -0.91675679 61.82768083 -7.4375 64.5625 C-17.2655124 67.70691948 -27.97773323 67.27374434 -37.5859375 63.5703125 C-47.60511579 58.37830134 -52.59860905 50.74076803 -55.98046875 40.24609375 C-58.03662287 29.19172062 -56.5639314 18.04663661 -50.75 8.4375 C-45.7915725 1.53722528 -39.47590285 -3.36314874 -31.17578125 -5.44140625 C-20.15290474 -7.14787667 -9.26839773 -6.61054838 0 0 Z " fill="#F2F6F8" transform="translate(1262.375,320.875)"/>
</svg>
