<?xml version="1.0" encoding="UTF-8"?>
<svg version="1.1" xmlns="http://www.w3.org/2000/svg" width="3000" height="3000">
<path d="M0 0 C1.3487579 -0.02377501 2.69816953 -0.01962611 4.04689819 0.00575334 C4.79324414 -0.00001588 5.53959009 -0.0057851 6.30855259 -0.01172915 C8.82991088 -0.02505008 11.34969852 -0.00246592 13.87097675 0.0197199 C15.68848189 0.01754113 17.50598552 0.0131662 19.32348073 0.00677407 C24.33359464 -0.0044471 29.34317775 0.01564969 34.35322398 0.04066437 C39.74994994 0.06219162 45.14664427 0.05495444 50.54340106 0.051153 C59.89884255 0.04852711 69.25411012 0.06425769 78.60950786 0.0923422 C92.13592944 0.13292158 105.66226664 0.14599372 119.1887425 0.15228216 C141.13277979 0.16323408 163.07672433 0.19653264 185.02071124 0.24379522 C206.34135025 0.28966758 227.6619469 0.32507085 248.98262531 0.34633428 C250.29611519 0.3476479 251.60960507 0.34896151 252.96289768 0.35031494 C259.55207697 0.35683997 266.14125644 0.36315855 272.73043603 0.36937445 C327.42239197 0.42123542 382.11424737 0.50932514 436.80611163 0.62099248 C437.05508397 5.67332213 435.72670132 7.58502766 432.55611163 11.55849248 C428.65592619 16.49745281 425.14501124 21.54443498 421.73579913 26.83192998 C421.05775226 27.87607061 420.37970538 28.92021123 419.68111163 29.99599248 C418.65630695 31.58540654 418.65630695 31.58540654 417.61079913 33.20692998 C417.01525226 34.00357061 416.41970538 34.80021123 415.80611163 35.62099248 C415.14611163 35.62099248 414.48611163 35.62099248 413.80611163 35.62099248 C413.14611163 37.60099248 412.48611163 39.58099248 411.80611163 41.62099248 C411.14611163 41.62099248 410.48611163 41.62099248 409.80611163 41.62099248 C409.55861163 42.32482061 409.31111163 43.02864873 409.05611163 43.75380498 C407.63982228 47.00241869 405.86266877 49.60946765 403.80611163 52.49599248 C401.16162542 56.22716391 398.55637654 59.97212341 396.06001788 63.80458623 C395.38616046 64.8364002 395.38616046 64.8364002 394.69868976 65.88905889 C393.82098525 67.23815903 392.94846543 68.59064832 392.08150226 69.94667608 C391.04074967 71.53933018 389.92955526 73.08554874 388.80611163 74.62099248 C388.14611163 74.62099248 387.48611163 74.62099248 386.80611163 74.62099248 C386.14611163 76.60099248 385.48611163 78.58099248 384.80611163 80.62099248 C384.14611163 80.62099248 383.48611163 80.62099248 382.80611163 80.62099248 C382.40392413 81.70960576 382.40392413 81.70960576 381.99361163 82.82021123 C380.81940782 85.58963272 379.46667924 87.93018682 377.80611163 90.43349248 C377.29048663 91.22368779 376.77486163 92.01388311 376.24361163 92.82802373 C375.76923663 93.41970342 375.29486163 94.01138311 374.80611163 94.62099248 C374.14611163 94.62099248 373.48611163 94.62099248 372.80611163 94.62099248 C372.59986163 95.28099248 372.39361163 95.94099248 372.18111163 96.62099248 C370.62727845 100.01117397 368.64072806 102.64153021 366.34126788 105.55849248 C364.65039186 107.83020378 363.25165075 110.18512007 361.80611163 112.62099248 C360.1466865 115.24382878 358.44856007 117.84008474 356.74361163 120.43349248 C356.29695148 121.12636358 355.85029132 121.81923467 355.39009601 122.53310186 C354.24844946 124.2651964 353.03288958 125.94811346 351.80611163 127.62099248 C351.14611163 127.62099248 350.48611163 127.62099248 349.80611163 127.62099248 C349.71201007 128.18173467 349.61790851 128.74247686 349.52095538 129.32021123 C348.62547077 132.20239942 347.20071262 134.03369823 345.36861163 136.43349248 C341.99899489 140.94443103 338.83166961 145.53844324 335.74361163 150.24599248 C332.4076936 155.32141737 328.9494534 160.19284107 325.08345538 164.88661748 C323.60709124 166.70479084 323.60709124 166.70479084 322.80611163 169.62099248 C322.14611163 169.62099248 321.48611163 169.62099248 320.80611163 169.62099248 C320.40392413 170.70960576 320.40392413 170.70960576 319.99361163 171.82021123 C318.81940782 174.58963272 317.46667924 176.93018682 315.80611163 179.43349248 C315.29048663 180.22368779 314.77486163 181.01388311 314.24361163 181.82802373 C313.76923663 182.41970342 313.29486163 183.01138311 312.80611163 183.62099248 C312.14611163 183.62099248 311.48611163 183.62099248 310.80611163 183.62099248 C310.14611163 185.60099248 309.48611163 187.58099248 308.80611163 189.62099248 C308.14611163 189.62099248 307.48611163 189.62099248 306.80611163 189.62099248 C306.53967853 190.35148809 306.27324542 191.08198369 305.99873859 191.83461553 C304.81697355 194.59561539 303.46776171 196.76548372 301.72408038 199.20302373 C300.82012531 200.47822881 300.82012531 200.47822881 299.89790851 201.77919561 C299.26949054 202.65511358 298.64107257 203.53103154 297.99361163 204.43349248 C296.75595742 206.16776029 295.52025156 207.90342033 294.28658038 209.64052373 C293.39785236 210.89083379 293.39785236 210.89083379 292.49117023 212.16640264 C290.47015803 215.11036911 288.62892747 218.13819027 286.84248859 221.22914678 C286.329482 221.9181104 286.329482 221.9181104 285.80611163 222.62099248 C285.14611163 222.62099248 284.48611163 222.62099248 283.80611163 222.62099248 C283.57150226 223.31064092 283.33689288 224.00028936 283.09517413 224.71083623 C281.54534706 228.20968825 279.44559995 231.1267522 277.18111163 234.18349248 C276.27461937 235.42846322 275.36969457 236.67457664 274.46626788 237.92177373 C274.0165462 238.54261846 273.56682452 239.16346318 273.10347492 239.80312139 C270.52723832 243.41295536 268.10930676 247.12808006 265.66548663 250.82802373 C263.39057688 254.24516759 261.04036032 257.60439215 258.67720538 260.96083623 C256.41758701 264.17336256 254.17164655 267.39513799 251.93111163 270.62099248 C251.53738361 271.18552129 251.14365558 271.7500501 250.7379964 272.33168584 C248.61907432 275.38348453 248.61907432 275.38348453 246.80611163 278.62099248 C246.14611163 278.62099248 245.48611163 278.62099248 244.80611163 278.62099248 C244.14611163 280.60099248 243.48611163 282.58099248 242.80611163 284.62099248 C242.14611163 284.62099248 241.48611163 284.62099248 240.80611163 284.62099248 C240.53798663 285.34673467 240.26986163 286.07247686 239.99361163 286.82021123 C238.81940782 289.58963272 237.46667924 291.93018682 235.80611163 294.43349248 C235.29048663 295.22368779 234.77486163 296.01388311 234.24361163 296.82802373 C233.76923663 297.41970342 233.29486163 298.01138311 232.80611163 298.62099248 C232.14611163 298.62099248 231.48611163 298.62099248 230.80611163 298.62099248 C230.53540851 299.35962529 230.26470538 300.09825811 229.98579913 300.85927373 C228.85543393 303.50552604 227.62506896 305.495103 225.93111163 307.80849248 C223.45498958 311.24784172 221.06517357 314.72604929 218.74751788 318.27333623 C218.21175128 319.09100469 217.67598468 319.90867315 217.12398273 320.75111943 C216.04226744 322.40641272 214.96570887 324.06508803 213.89449054 325.72719365 C213.14498126 326.86958501 213.14498126 326.86958501 212.38033038 328.03505498 C211.93262286 328.72550908 211.48491534 329.41596318 211.02364093 330.12734014 C210.62185626 330.62024541 210.22007159 331.11315068 209.80611163 331.62099248 C209.14611163 331.62099248 208.48611163 331.62099248 207.80611163 331.62099248 C207.66173663 332.23974248 207.51736163 332.85849248 207.36861163 333.49599248 C206.80611163 335.62099248 206.80611163 335.62099248 205.80611163 337.62099248 C205.14611163 337.62099248 204.48611163 337.62099248 203.80611163 337.62099248 C203.5392757 338.35317998 203.27243976 339.08536748 202.99751788 339.83974248 C201.8214531 342.58517896 200.4915833 344.70771718 198.74361163 347.12099248 C196.63628458 350.06155137 194.53383598 353.00214882 192.48579913 355.98427373 C191.89617389 356.84278936 191.89617389 356.84278936 191.29463702 357.71864873 C190.16952475 359.35925255 189.04445775 360.9998874 187.91939288 362.64052373 C186.57730978 364.53333225 185.1832375 366.39111266 183.72408038 368.19521123 C181.83567813 370.58359778 180.33706902 372.9925176 178.80611163 375.62099248 C177.46683277 377.73466626 176.11207355 379.8385947 174.74361163 381.93349248 C174.05138507 383.00212529 173.35915851 384.07075811 172.64595538 385.17177373 C172.03880695 385.98001592 171.43165851 386.78825811 170.80611163 387.62099248 C170.14611163 387.62099248 169.48611163 387.62099248 168.80611163 387.62099248 C168.14611163 389.60099248 167.48611163 391.58099248 166.80611163 393.62099248 C166.14611163 393.62099248 165.48611163 393.62099248 164.80611163 393.62099248 C164.54257892 394.3471375 164.2790462 395.07328252 164.00752765 395.82143193 C162.78999102 398.65855702 161.37306119 400.9040587 159.58345538 403.41396123 C158.65242999 404.72977178 158.65242999 404.72977178 157.70259601 406.07216436 C156.73289874 407.42664678 156.73289874 407.42664678 155.74361163 408.80849248 C154.4599818 410.6137162 153.17737734 412.4196696 151.89595538 414.22646123 C151.32739825 415.02205449 150.75884113 415.81764776 150.17305499 416.6373499 C148.77420159 418.56874894 148.77420159 418.56874894 147.80611163 420.62099248 C147.14611163 420.62099248 146.48611163 420.62099248 145.80611163 420.62099248 C145.66173663 421.23974248 145.51736163 421.85849248 145.36861163 422.49599248 C144.80611163 424.62099248 144.80611163 424.62099248 143.80611163 426.62099248 C143.14611163 426.62099248 142.48611163 426.62099248 141.80611163 426.62099248 C141.14611163 428.60099248 140.48611163 430.58099248 139.80611163 432.62099248 C139.14611163 432.62099248 138.48611163 432.62099248 137.80611163 432.62099248 C137.53798663 433.34673467 137.26986163 434.07247686 136.99361163 434.82021123 C135.81940782 437.58963272 134.46667924 439.93018682 132.80611163 442.43349248 C132.29048663 443.22368779 131.77486163 444.01388311 131.24361163 444.82802373 C130.76923663 445.41970342 130.29486163 446.01138311 129.80611163 446.62099248 C129.14611163 446.62099248 128.48611163 446.62099248 127.80611163 446.62099248 C127.59986163 447.28099248 127.39361163 447.94099248 127.18111163 448.62099248 C125.62727845 452.01117397 123.64072806 454.64153021 121.34126788 457.55849248 C119.75799377 459.61207883 119.75799377 459.61207883 118.43111163 461.92958623 C115.9911563 465.97076226 113.17246716 469.72680576 110.39009601 473.53700811 C108.2703884 476.46784449 106.27046648 479.30344281 104.80611163 482.62099248 C104.14611163 482.62099248 103.48611163 482.62099248 102.80611163 482.62099248 C102.43679523 483.67286748 102.43679523 483.67286748 102.06001788 484.74599248 C100.62583211 488.03434365 98.81816679 490.69393053 96.74361163 493.62099248 C95.936109 494.76667715 95.12882386 495.91251514 94.32173663 497.05849248 C93.90730304 497.64372686 93.49286945 498.22896123 93.06587726 498.83192998 C91.81566427 500.60742625 90.5815246 502.39294276 89.35298663 504.18349248 C88.95732501 504.75970342 88.56166339 505.33591436 88.15401202 505.92958623 C87.57961383 506.76683233 87.57961383 506.76683233 86.99361163 507.62099248 C84.94389924 510.60782293 82.90129093 513.50468102 80.60689288 516.30849248 C78.63676807 518.57340452 78.63676807 518.57340452 77.80611163 521.62099248 C77.14611163 521.62099248 76.48611163 521.62099248 75.80611163 521.62099248 C75.40392413 522.70960576 75.40392413 522.70960576 74.99361163 523.82021123 C73.81940782 526.58963272 72.46667924 528.93018682 70.80611163 531.43349248 C70.29048663 532.22368779 69.77486163 533.01388311 69.24361163 533.82802373 C68.53204913 534.71554326 68.53204913 534.71554326 67.80611163 535.62099248 C67.14611163 535.62099248 66.48611163 535.62099248 65.80611163 535.62099248 C65.14611163 537.60099248 64.48611163 539.58099248 63.80611163 541.62099248 C63.14611163 541.62099248 62.48611163 541.62099248 61.80611163 541.62099248 C61.49480304 542.59552373 61.49480304 542.59552373 61.17720538 543.58974248 C59.26276277 547.82224239 56.59114075 551.37225442 53.86861163 555.12099248 C52.79536445 556.60939995 51.7237054 558.09895409 50.65376788 559.58974248 C50.15377277 560.28454717 49.65377765 560.97935186 49.13863117 561.69521123 C47.66946653 563.76314264 47.66946653 563.76314264 46.05220538 566.65224248 C45.64099445 567.30192998 45.22978351 567.95161748 44.80611163 568.62099248 C44.14611163 568.62099248 43.48611163 568.62099248 42.80611163 568.62099248 C42.66173663 569.23974248 42.51736163 569.85849248 42.36861163 570.49599248 C41.80611163 572.62099248 41.80611163 572.62099248 40.80611163 574.62099248 C40.14611163 574.62099248 39.48611163 574.62099248 38.80611163 574.62099248 C38.5392757 575.35317998 38.27243976 576.08536748 37.99751788 576.83974248 C36.8214531 579.58517896 35.4915833 581.70771718 33.74361163 584.12099248 C31.63628458 587.06155137 29.53383598 590.00214882 27.48579913 592.98427373 C27.09271564 593.55661748 26.69963214 594.12896123 26.29463702 594.71864873 C25.16952475 596.35925255 24.04445775 597.9998874 22.91939288 599.64052373 C21.57730978 601.53333225 20.1832375 603.39111266 18.72408038 605.19521123 C16.83567813 607.58359778 15.33706902 609.9925176 13.80611163 612.62099248 C12.46683277 614.73466626 11.11207355 616.8385947 9.74361163 618.93349248 C9.05138507 620.00212529 8.35915851 621.07075811 7.64595538 622.17177373 C7.03880695 622.98001592 6.43165851 623.78825811 5.80611163 624.62099248 C5.14611163 624.62099248 4.48611163 624.62099248 3.80611163 624.62099248 C3.14611163 626.60099248 2.48611163 628.58099248 1.80611163 630.62099248 C1.14611163 630.62099248 0.48611163 630.62099248 -0.19388837 630.62099248 C-0.54773602 631.65159795 -0.54773602 631.65159795 -0.90873212 632.70302373 C-2.45532156 636.21458093 -4.53214677 639.20579843 -6.75638837 642.30849248 C-9.69190367 646.33069703 -9.69190367 646.33069703 -12.19388837 650.62099248 C-12.85388837 650.62099248 -13.51388837 650.62099248 -14.19388837 650.62099248 C-14.46459149 651.35962529 -14.73529462 652.09825811 -15.01420087 652.85927373 C-16.14456607 655.50552604 -17.37493104 657.495103 -19.06888837 659.80849248 C-21.54501042 663.24784172 -23.93482643 666.72604929 -26.25248212 670.27333623 C-27.05613202 671.49983892 -27.05613202 671.49983892 -27.87601727 672.75111943 C-28.95773256 674.40641272 -30.03429113 676.06508803 -31.10550946 677.72719365 C-31.85501874 678.86958501 -31.85501874 678.86958501 -32.61966962 680.03505498 C-33.06737714 680.72550908 -33.51508466 681.41596318 -33.97635907 682.12734014 C-34.57903607 682.86669805 -34.57903607 682.86669805 -35.19388837 683.62099248 C-35.85388837 683.62099248 -36.51388837 683.62099248 -37.19388837 683.62099248 C-37.45814618 684.34931279 -37.72240399 685.07763311 -37.99466962 685.82802373 C-39.20118766 688.63799246 -40.59408852 690.83408423 -42.38138837 693.30849248 C-43.00529462 694.18118779 -43.62920087 695.05388311 -44.27201337 695.95302373 C-44.90623212 696.83345342 -45.54045087 697.71388311 -46.19388837 698.62099248 C-49.91992627 703.88276223 -53.5773085 709.17878174 -57.13138837 714.55849248 C-60.40609571 719.50228515 -63.84665427 724.29352335 -67.36966962 729.06239873 C-69.05361777 731.4242532 -70.57849016 733.82158169 -72.06888837 736.30849248 C-72.77013837 737.40161748 -73.47138837 738.49474248 -74.19388837 739.62099248 C-74.85388837 739.62099248 -75.51388837 739.62099248 -76.19388837 739.62099248 C-76.85388837 741.60099248 -77.51388837 743.58099248 -78.19388837 745.62099248 C-78.85388837 745.62099248 -79.51388837 745.62099248 -80.19388837 745.62099248 C-80.45742108 746.3471375 -80.7209538 747.07328252 -80.99247235 747.82143193 C-82.21000898 750.65855702 -83.62693881 752.9040587 -85.41654462 755.41396123 C-86.03722821 756.29116826 -86.6579118 757.16837529 -87.29740399 758.07216436 C-87.94386883 758.97515264 -88.59033368 759.87814092 -89.25638837 760.80849248 C-90.5400182 762.6137162 -91.82262266 764.4196696 -93.10404462 766.22646123 C-93.67260175 767.02205449 -94.24115887 767.81764776 -94.82694501 768.6373499 C-96.22579841 770.56874894 -96.22579841 770.56874894 -97.19388837 772.62099248 C-97.85388837 772.62099248 -98.51388837 772.62099248 -99.19388837 772.62099248 C-99.33826337 773.23974248 -99.48263837 773.85849248 -99.63138837 774.49599248 C-100.19388837 776.62099248 -100.19388837 776.62099248 -101.19388837 778.62099248 C-101.85388837 778.62099248 -102.51388837 778.62099248 -103.19388837 778.62099248 C-103.59607587 779.70960576 -103.59607587 779.70960576 -104.00638837 780.82021123 C-105.18059218 783.58963272 -106.53332076 785.93018682 -108.19388837 788.43349248 C-108.70951337 789.22368779 -109.22513837 790.01388311 -109.75638837 790.82802373 C-110.46795087 791.71554326 -110.46795087 791.71554326 -111.19388837 792.62099248 C-111.85388837 792.62099248 -112.51388837 792.62099248 -113.19388837 792.62099248 C-113.29056805 793.17915654 -113.38724774 793.73732061 -113.48685712 794.31239873 C-114.36304234 797.17331292 -115.76040801 799.13206582 -117.50638837 801.55849248 C-118.13673993 802.43763311 -118.76709149 803.31677373 -119.41654462 804.22255498 C-121.28193384 806.73980549 -123.23689624 809.17475233 -125.19388837 811.62099248 C-125.62056805 812.34544561 -126.04724774 813.06989873 -126.48685712 813.81630498 C-128.9658659 817.88936746 -131.79942603 821.68831607 -134.60990399 825.53700811 C-136.7296116 828.46784449 -138.72953352 831.30344281 -140.19388837 834.62099248 C-140.85388837 834.62099248 -141.51388837 834.62099248 -142.19388837 834.62099248 C-142.4400993 835.32224248 -142.68631024 836.02349248 -142.93998212 836.74599248 C-144.37416789 840.03434365 -146.18183321 842.69393053 -148.25638837 845.62099248 C-149.05987411 846.76284897 -149.86325631 847.90477833 -150.66654462 849.04677373 C-151.08049481 849.63152471 -151.49444501 850.21627568 -151.92093915 850.81874639 C-154.0290638 853.80343687 -156.11154461 856.80578748 -158.19388837 859.80849248 C-158.93638837 860.87454717 -159.67888837 861.94060186 -160.44388837 863.03896123 C-162.1704852 865.46450829 -162.1704852 865.46450829 -163.19388837 867.62099248 C-163.85388837 867.62099248 -164.51388837 867.62099248 -165.19388837 867.62099248 C-165.59607587 868.70960576 -165.59607587 868.70960576 -166.00638837 869.82021123 C-167.18059218 872.58963272 -168.53332076 874.93018682 -170.19388837 877.43349248 C-170.70951337 878.22368779 -171.22513837 879.01388311 -171.75638837 879.82802373 C-172.46795087 880.71554326 -172.46795087 880.71554326 -173.19388837 881.62099248 C-173.85388837 881.62099248 -174.51388837 881.62099248 -175.19388837 881.62099248 C-175.33826337 882.23974248 -175.48263837 882.85849248 -175.63138837 883.49599248 C-176.19388837 885.62099248 -176.19388837 885.62099248 -177.19388837 887.62099248 C-177.85388837 887.62099248 -178.51388837 887.62099248 -179.19388837 887.62099248 C-179.85388837 889.60099248 -180.51388837 891.58099248 -181.19388837 893.62099248 C-181.85388837 893.62099248 -182.51388837 893.62099248 -183.19388837 893.62099248 C-183.40271649 894.27067998 -183.61154462 894.92036748 -183.82670087 895.58974248 C-185.73131612 899.81254659 -188.36854246 903.37159133 -191.06888837 907.12099248 C-191.59869305 907.86735967 -192.12849774 908.61372686 -192.67435712 909.38271123 C-194.86620187 912.45564494 -197.07200833 915.47085652 -199.45170087 918.40224248 C-201.44393772 920.78669221 -201.44393772 920.78669221 -203.19388837 924.62099248 C-496.23388837 924.95099248 -789.27388837 925.28099248 -1091.19388837 925.62099248 C-1092.51388837 927.93099248 -1093.83388837 930.24099248 -1095.19388837 932.62099248 C-1095.85388837 932.62099248 -1096.51388837 932.62099248 -1097.19388837 932.62099248 C-1097.40013837 933.28099248 -1097.60638837 933.94099248 -1097.81888837 934.62099248 C-1099.37272155 938.01117397 -1101.35927194 940.64153021 -1103.65873212 943.55849248 C-1105.2262629 945.59210943 -1105.2262629 945.59210943 -1106.49466962 947.79677373 C-1108.97384847 951.91733996 -1111.71933495 955.84726508 -1114.44388837 959.80849248 C-1115.31678509 961.08007207 -1115.31678509 961.08007207 -1116.2073161 962.37734014 C-1117.86737735 964.79336561 -1119.52998072 967.20761488 -1121.19388837 969.62099248 C-1121.94283368 970.70767217 -1122.69177899 971.79435186 -1123.46341962 972.91396123 C-1126.25436222 976.9331618 -1129.13660207 980.79938461 -1132.19388837 984.62099248 C-1132.60896649 985.32224248 -1133.02404462 986.02349248 -1133.45170087 986.74599248 C-1135.75298587 990.54362872 -1138.28531648 994.16318397 -1140.81888837 997.80849248 C-1141.81224472 999.23867092 -1142.80448654 1000.66962433 -1143.79545087 1002.10146123 C-1144.23195966 1002.72947637 -1144.66846844 1003.35749151 -1145.11820477 1004.0045374 C-1146.25563094 1005.64180747 -1146.25563094 1005.64180747 -1147.19388837 1007.62099248 C-1147.85388837 1007.62099248 -1148.51388837 1007.62099248 -1149.19388837 1007.62099248 C-1149.85388837 1009.60099248 -1150.51388837 1011.58099248 -1151.19388837 1013.62099248 C-1151.85388837 1013.62099248 -1152.51388837 1013.62099248 -1153.19388837 1013.62099248 C-1153.46201337 1014.34673467 -1153.73013837 1015.07247686 -1154.00638837 1015.82021123 C-1155.18059218 1018.58963272 -1156.53332076 1020.93018682 -1158.19388837 1023.43349248 C-1158.70951337 1024.22368779 -1159.22513837 1025.01388311 -1159.75638837 1025.82802373 C-1160.23076337 1026.41970342 -1160.70513837 1027.01138311 -1161.19388837 1027.62099248 C-1161.85388837 1027.62099248 -1162.51388837 1027.62099248 -1163.19388837 1027.62099248 C-1163.85388837 1029.60099248 -1164.51388837 1031.58099248 -1165.19388837 1033.62099248 C-1165.85388837 1033.62099248 -1166.51388837 1033.62099248 -1167.19388837 1033.62099248 C-1167.40658368 1034.27841436 -1167.61927899 1034.93583623 -1167.83841962 1035.61317998 C-1169.68499142 1039.71076006 -1172.24373289 1043.12213575 -1174.88138837 1046.74599248 C-1179.12750539 1052.64592058 -1183.16017717 1058.5695307 -1186.88920087 1064.81239873 C-1187.31974774 1065.40923467 -1187.75029462 1066.00607061 -1188.19388837 1066.62099248 C-1188.85388837 1066.62099248 -1189.51388837 1066.62099248 -1190.19388837 1066.62099248 C-1190.59800946 1067.72507451 -1190.59800946 1067.72507451 -1191.01029462 1068.85146123 C-1192.15633594 1071.53312228 -1193.4224212 1073.58105112 -1195.13138837 1075.93349248 C-1198.40203665 1080.49734689 -1201.59096529 1085.10901463 -1204.75638837 1089.74599248 C-1207.69439798 1094.04342439 -1210.64938512 1098.30168222 -1213.81888837 1102.43349248 C-1216.29928674 1105.41511605 -1216.29928674 1105.41511605 -1217.19388837 1108.62099248 C-1217.85388837 1108.62099248 -1218.51388837 1108.62099248 -1219.19388837 1108.62099248 C-1219.46201337 1109.34673467 -1219.73013837 1110.07247686 -1220.00638837 1110.82021123 C-1221.18059218 1113.58963272 -1222.53332076 1115.93018682 -1224.19388837 1118.43349248 C-1224.70951337 1119.22368779 -1225.22513837 1120.01388311 -1225.75638837 1120.82802373 C-1226.23076337 1121.41970342 -1226.70513837 1122.01138311 -1227.19388837 1122.62099248 C-1227.85388837 1122.62099248 -1228.51388837 1122.62099248 -1229.19388837 1122.62099248 C-1229.85388837 1124.60099248 -1230.51388837 1126.58099248 -1231.19388837 1128.62099248 C-1231.85388837 1128.62099248 -1232.51388837 1128.62099248 -1233.19388837 1128.62099248 C-1233.46032147 1129.35148809 -1233.72675458 1130.08198369 -1234.00126141 1130.83461553 C-1235.18302645 1133.59561539 -1236.53223829 1135.76548372 -1238.27591962 1138.20302373 C-1238.87855633 1139.05316045 -1239.48119305 1139.90329717 -1240.10209149 1140.77919561 C-1241.04471844 1142.09307256 -1241.04471844 1142.09307256 -1242.00638837 1143.43349248 C-1243.24404258 1145.16776029 -1244.47974844 1146.90342033 -1245.71341962 1148.64052373 C-1246.30590497 1149.47406377 -1246.89839032 1150.30760381 -1247.50882977 1151.16640264 C-1249.52984197 1154.11036911 -1251.37107253 1157.13819027 -1253.15751141 1160.22914678 C-1253.670518 1160.9181104 -1253.670518 1160.9181104 -1254.19388837 1161.62099248 C-1254.85388837 1161.62099248 -1255.51388837 1161.62099248 -1256.19388837 1161.62099248 C-1256.85388837 1163.60099248 -1257.51388837 1165.58099248 -1258.19388837 1167.62099248 C-1258.85388837 1167.62099248 -1259.51388837 1167.62099248 -1260.19388837 1167.62099248 C-1260.54580243 1168.65546514 -1260.54580243 1168.65546514 -1260.90482587 1169.71083623 C-1262.45464595 1173.20967249 -1264.5543341 1176.12681194 -1266.81888837 1179.18349248 C-1270.08421079 1183.66608274 -1273.26961203 1188.17407646 -1276.31888837 1192.80849248 C-1279.52548333 1197.67344767 -1282.90802797 1202.3766009 -1286.36966962 1207.06239873 C-1288.05361777 1209.4242532 -1289.57849016 1211.82158169 -1291.06888837 1214.30849248 C-1291.77013837 1215.40161748 -1292.47138837 1216.49474248 -1293.19388837 1217.62099248 C-1293.85388837 1217.62099248 -1294.51388837 1217.62099248 -1295.19388837 1217.62099248 C-1295.85388837 1219.60099248 -1296.51388837 1221.58099248 -1297.19388837 1223.62099248 C-1297.85388837 1223.62099248 -1298.51388837 1223.62099248 -1299.19388837 1223.62099248 C-1299.44138837 1224.32482061 -1299.68888837 1225.02864873 -1299.94388837 1225.75380498 C-1301.36017772 1229.00241869 -1303.13733123 1231.60946765 -1305.19388837 1234.49599248 C-1307.83837458 1238.22716391 -1310.44362346 1241.97212341 -1312.93998212 1245.80458623 C-1313.61383954 1246.8364002 -1313.61383954 1246.8364002 -1314.30131024 1247.88905889 C-1315.17901475 1249.23815903 -1316.05153457 1250.59064832 -1316.91849774 1251.94667608 C-1317.95925033 1253.53933018 -1319.07044474 1255.08554874 -1320.19388837 1256.62099248 C-1320.85388837 1256.62099248 -1321.51388837 1256.62099248 -1322.19388837 1256.62099248 C-1322.85388837 1258.60099248 -1323.51388837 1260.58099248 -1324.19388837 1262.62099248 C-1324.85388837 1262.62099248 -1325.51388837 1262.62099248 -1326.19388837 1262.62099248 C-1326.42076337 1263.28485967 -1326.64763837 1263.94872686 -1326.88138837 1264.63271123 C-1328.59106636 1268.52528166 -1330.83277475 1271.90868715 -1333.19388837 1275.43349248 C-1333.64506024 1276.12636358 -1334.09623212 1276.81923467 -1334.56107587 1277.53310186 C-1335.71622983 1279.26754162 -1336.94927096 1280.94958904 -1338.19388837 1282.62099248 C-1338.85388837 1282.62099248 -1339.51388837 1282.62099248 -1340.19388837 1282.62099248 C-1340.40013837 1283.28099248 -1340.60638837 1283.94099248 -1340.81888837 1284.62099248 C-1342.37272155 1288.01117397 -1344.35927194 1290.64153021 -1346.65873212 1293.55849248 C-1348.34960814 1295.83020378 -1349.74834925 1298.18512007 -1351.19388837 1300.62099248 C-1352.8533135 1303.24382878 -1354.55143993 1305.84008474 -1356.25638837 1308.43349248 C-1356.9263786 1309.47279912 -1356.9263786 1309.47279912 -1357.60990399 1310.53310186 C-1358.75155054 1312.2651964 -1359.96711042 1313.94811346 -1361.19388837 1315.62099248 C-1361.85388837 1315.62099248 -1362.51388837 1315.62099248 -1363.19388837 1315.62099248 C-1363.28798993 1316.18173467 -1363.38209149 1316.74247686 -1363.47904462 1317.32021123 C-1364.37452923 1320.20239942 -1365.79928738 1322.03369823 -1367.63138837 1324.43349248 C-1370.98615652 1328.93056521 -1374.16590003 1333.50114895 -1377.25638837 1338.18349248 C-1380.72802443 1343.43814806 -1384.26357458 1348.63417524 -1387.91654462 1353.76552373 C-1389.23731153 1355.59215949 -1389.23731153 1355.59215949 -1390.19388837 1357.62099248 C-1390.85388837 1357.62099248 -1391.51388837 1357.62099248 -1392.19388837 1357.62099248 C-1392.42076337 1358.28485967 -1392.64763837 1358.94872686 -1392.88138837 1359.63271123 C-1394.59106636 1363.52528166 -1396.83277475 1366.90868715 -1399.19388837 1370.43349248 C-1399.64506024 1371.12636358 -1400.09623212 1371.81923467 -1400.56107587 1372.53310186 C-1401.71622983 1374.26754162 -1402.94927096 1375.94958904 -1404.19388837 1377.62099248 C-1404.85388837 1377.62099248 -1405.51388837 1377.62099248 -1406.19388837 1377.62099248 C-1406.85388837 1379.60099248 -1407.51388837 1381.58099248 -1408.19388837 1383.62099248 C-1408.85388837 1383.62099248 -1409.51388837 1383.62099248 -1410.19388837 1383.62099248 C-1410.50519696 1384.59552373 -1410.50519696 1384.59552373 -1410.82279462 1385.58974248 C-1412.73723723 1389.82224239 -1415.40885925 1393.37225442 -1418.13138837 1397.12099248 C-1419.20463555 1398.60939995 -1420.2762946 1400.09895409 -1421.34623212 1401.58974248 C-1422.09622479 1402.63194951 -1422.09622479 1402.63194951 -1422.86136883 1403.69521123 C-1424.33053347 1405.76314264 -1424.33053347 1405.76314264 -1425.94779462 1408.65224248 C-1426.35900555 1409.30192998 -1426.77021649 1409.95161748 -1427.19388837 1410.62099248 C-1427.85388837 1410.62099248 -1428.51388837 1410.62099248 -1429.19388837 1410.62099248 C-1429.33826337 1411.23974248 -1429.48263837 1411.85849248 -1429.63138837 1412.49599248 C-1430.19388837 1414.62099248 -1430.19388837 1414.62099248 -1431.19388837 1416.62099248 C-1431.85388837 1416.62099248 -1432.51388837 1416.62099248 -1433.19388837 1416.62099248 C-1433.45814618 1417.34931279 -1433.72240399 1418.07763311 -1433.99466962 1418.82802373 C-1435.20118766 1421.63799246 -1436.59408852 1423.83408423 -1438.38138837 1426.30849248 C-1439.00271649 1427.17603154 -1439.62404462 1428.04357061 -1440.26420087 1428.93739873 C-1440.90099774 1429.82298467 -1441.53779462 1430.70857061 -1442.19388837 1431.62099248 C-1443.38335629 1433.32795619 -1444.57090363 1435.03626005 -1445.75638837 1436.74599248 C-1448.36356817 1440.47806785 -1451.05206767 1444.13116287 -1453.83451337 1447.73427373 C-1455.43438942 1449.95479136 -1456.78752454 1452.27168907 -1458.19388837 1454.62099248 C-1460.1852311 1457.74476056 -1462.21789325 1460.84035079 -1464.25638837 1463.93349248 C-1464.79843915 1464.76944951 -1465.34048993 1465.60540654 -1465.89896649 1466.46669561 C-1466.68110516 1467.65102178 -1466.68110516 1467.65102178 -1467.47904462 1468.85927373 C-1468.18879437 1469.94269048 -1468.18879437 1469.94269048 -1468.91288251 1471.04799443 C-1469.33561444 1471.56708379 -1469.75834637 1472.08617315 -1470.19388837 1472.62099248 C-1470.85388837 1472.62099248 -1471.51388837 1472.62099248 -1472.19388837 1472.62099248 C-1472.85388837 1474.60099248 -1473.51388837 1476.58099248 -1474.19388837 1478.62099248 C-1474.85388837 1478.62099248 -1475.51388837 1478.62099248 -1476.19388837 1478.62099248 C-1476.45742108 1479.3471375 -1476.7209538 1480.07328252 -1476.99247235 1480.82143193 C-1478.21000898 1483.65855702 -1479.62693881 1485.9040587 -1481.41654462 1488.41396123 C-1482.03722821 1489.29116826 -1482.6579118 1490.16837529 -1483.29740399 1491.07216436 C-1483.94386883 1491.97515264 -1484.59033368 1492.87814092 -1485.25638837 1493.80849248 C-1486.5400182 1495.6137162 -1487.82262266 1497.4196696 -1489.10404462 1499.22646123 C-1489.95688031 1500.41985112 -1489.95688031 1500.41985112 -1490.82694501 1501.6373499 C-1492.22579841 1503.56874894 -1492.22579841 1503.56874894 -1493.19388837 1505.62099248 C-1493.85388837 1505.62099248 -1494.51388837 1505.62099248 -1495.19388837 1505.62099248 C-1495.33826337 1506.23974248 -1495.48263837 1506.85849248 -1495.63138837 1507.49599248 C-1496.19388837 1509.62099248 -1496.19388837 1509.62099248 -1497.19388837 1511.62099248 C-1497.85388837 1511.62099248 -1498.51388837 1511.62099248 -1499.19388837 1511.62099248 C-1499.85388837 1513.60099248 -1500.51388837 1515.58099248 -1501.19388837 1517.62099248 C-1501.85388837 1517.62099248 -1502.51388837 1517.62099248 -1503.19388837 1517.62099248 C-1503.4607243 1518.35317998 -1503.72756024 1519.08536748 -1504.00248212 1519.83974248 C-1505.1785469 1522.58517896 -1506.5084167 1524.70771718 -1508.25638837 1527.12099248 C-1510.36371542 1530.06155137 -1512.46616402 1533.00214882 -1514.51420087 1535.98427373 C-1514.90728436 1536.55661748 -1515.30036786 1537.12896123 -1515.70536298 1537.71864873 C-1516.83047525 1539.35925255 -1517.95554225 1540.9998874 -1519.08060712 1542.64052373 C-1520.45645448 1544.58095171 -1521.89521705 1546.47872366 -1523.40091962 1548.32021123 C-1525.36411989 1550.57551032 -1525.36411989 1550.57551032 -1526.19388837 1553.62099248 C-1671.72388837 1553.62099248 -1817.25388837 1553.62099248 -1967.19388837 1553.62099248 C-1966.23422144 1548.82265785 -1965.64841291 1547.47532531 -1962.81888837 1543.80849248 C-1959.17627684 1538.96930621 -1955.68223166 1534.05371964 -1952.25638837 1529.05849248 C-1951.771862 1528.35555059 -1951.28733563 1527.65260869 -1950.78812665 1526.92836553 C-1948.32015202 1523.37809644 -1948.32015202 1523.37809644 -1946.19388837 1519.62099248 C-1945.53388837 1519.62099248 -1944.87388837 1519.62099248 -1944.19388837 1519.62099248 C-1943.82650555 1518.57298467 -1943.82650555 1518.57298467 -1943.45170087 1517.50380498 C-1941.99946109 1514.17537966 -1940.16167694 1511.46381461 -1938.06888837 1508.49599248 C-1937.67435467 1507.93339727 -1937.27982098 1507.37080205 -1936.87333173 1506.7911585 C-1933.59253822 1502.13042668 -1930.22602296 1497.53285006 -1926.82279462 1492.96083623 C-1925.38674282 1490.89801842 -1924.2412679 1488.89996403 -1923.19388837 1486.62099248 C-1922.53388837 1486.62099248 -1921.87388837 1486.62099248 -1921.19388837 1486.62099248 C-1920.92576337 1485.89525029 -1920.65763837 1485.16950811 -1920.38138837 1484.42177373 C-1919.20718456 1481.65235225 -1917.85445597 1479.31179814 -1916.19388837 1476.80849248 C-1915.67826337 1476.01829717 -1915.16263837 1475.22810186 -1914.63138837 1474.41396123 C-1914.15701337 1473.82228154 -1913.68263837 1473.23060186 -1913.19388837 1472.62099248 C-1912.53388837 1472.62099248 -1911.87388837 1472.62099248 -1911.19388837 1472.62099248 C-1910.96185712 1471.93650029 -1910.72982587 1471.25200811 -1910.49076337 1470.54677373 C-1908.90304608 1466.96484528 -1906.75061333 1463.94899397 -1904.44388837 1460.80849248 C-1903.99650311 1460.19046758 -1903.54911786 1459.57244268 -1903.08817548 1458.93568975 C-1900.26032758 1455.04005466 -1897.3935564 1451.17459325 -1894.44779462 1447.36708623 C-1892.88803765 1445.19508821 -1891.56518346 1442.91726493 -1890.19388837 1440.62099248 C-1888.5338788 1437.99852491 -1886.83633893 1435.40190345 -1885.13138837 1432.80849248 C-1884.68472821 1432.11562139 -1884.23806805 1431.42275029 -1883.77787274 1430.70888311 C-1882.63622619 1428.97678857 -1881.42066631 1427.2938715 -1880.19388837 1425.62099248 C-1879.53388837 1425.62099248 -1878.87388837 1425.62099248 -1878.19388837 1425.62099248 C-1877.92834149 1424.89138311 -1877.66279462 1424.16177373 -1877.38920087 1423.41005498 C-1876.19672137 1420.62760282 -1874.83278299 1418.44903663 -1873.06888837 1415.99599248 C-1872.45142743 1415.13232061 -1871.83396649 1414.26864873 -1871.19779462 1413.37880498 C-1868.50146525 1409.6680671 -1865.80503375 1405.95754058 -1863.08841962 1402.26161748 C-1860.31034447 1398.38949624 -1857.7057363 1394.41483966 -1855.12357587 1390.41005498 C-1854.44552899 1389.36591436 -1853.76748212 1388.32177373 -1853.06888837 1387.24599248 C-1852.04408368 1385.65657842 -1852.04408368 1385.65657842 -1850.99857587 1384.03505498 C-1850.40302899 1383.23841436 -1849.80748212 1382.44177373 -1849.19388837 1381.62099248 C-1848.53388837 1381.62099248 -1847.87388837 1381.62099248 -1847.19388837 1381.62099248 C-1846.53388837 1379.64099248 -1845.87388837 1377.66099248 -1845.19388837 1375.62099248 C-1844.53388837 1375.62099248 -1843.87388837 1375.62099248 -1843.19388837 1375.62099248 C-1842.92576337 1374.89525029 -1842.65763837 1374.16950811 -1842.38138837 1373.42177373 C-1841.20718456 1370.65235225 -1839.85445597 1368.31179814 -1838.19388837 1365.80849248 C-1837.67826337 1365.01829717 -1837.16263837 1364.22810186 -1836.63138837 1363.41396123 C-1836.15701337 1362.82228154 -1835.68263837 1362.23060186 -1835.19388837 1361.62099248 C-1834.53388837 1361.62099248 -1833.87388837 1361.62099248 -1833.19388837 1361.62099248 C-1832.93035565 1360.89484746 -1832.66682294 1360.16870244 -1832.39530438 1359.42055303 C-1831.17776775 1356.58342795 -1829.76083792 1354.33792626 -1827.97123212 1351.82802373 C-1827.35054852 1350.9508167 -1826.72986493 1350.07360967 -1826.09037274 1349.16982061 C-1825.4439079 1348.26683233 -1824.79744305 1347.36384404 -1824.13138837 1346.43349248 C-1822.84775853 1344.62826876 -1821.56515407 1342.82231536 -1820.28373212 1341.01552373 C-1819.71517499 1340.21993047 -1819.14661786 1339.42433721 -1818.56083173 1338.60463506 C-1817.16197832 1336.67323602 -1817.16197832 1336.67323602 -1816.19388837 1334.62099248 C-1815.53388837 1334.62099248 -1814.87388837 1334.62099248 -1814.19388837 1334.62099248 C-1813.53388837 1332.64099248 -1812.87388837 1330.66099248 -1812.19388837 1328.62099248 C-1811.53388837 1328.62099248 -1810.87388837 1328.62099248 -1810.19388837 1328.62099248 C-1809.92576337 1327.89525029 -1809.65763837 1327.16950811 -1809.38138837 1326.42177373 C-1808.20718456 1323.65235225 -1806.85445597 1321.31179814 -1805.19388837 1318.80849248 C-1804.67826337 1318.01829717 -1804.16263837 1317.22810186 -1803.63138837 1316.41396123 C-1803.15701337 1315.82228154 -1802.68263837 1315.23060186 -1802.19388837 1314.62099248 C-1801.53388837 1314.62099248 -1800.87388837 1314.62099248 -1800.19388837 1314.62099248 C-1799.92834149 1313.89138311 -1799.66279462 1313.16177373 -1799.38920087 1312.41005498 C-1798.19672137 1309.62760282 -1796.83278299 1307.44903663 -1795.06888837 1304.99599248 C-1794.45142743 1304.13232061 -1793.83396649 1303.26864873 -1793.19779462 1302.37880498 C-1790.50146525 1298.6680671 -1787.80503375 1294.95754058 -1785.08841962 1291.26161748 C-1782.31034447 1287.38949624 -1779.7057363 1283.41483966 -1777.12357587 1279.41005498 C-1776.10650555 1277.84384404 -1776.10650555 1277.84384404 -1775.06888837 1276.24599248 C-1774.38568524 1275.18638311 -1773.70248212 1274.12677373 -1772.99857587 1273.03505498 C-1772.40302899 1272.23841436 -1771.80748212 1271.44177373 -1771.19388837 1270.62099248 C-1770.53388837 1270.62099248 -1769.87388837 1270.62099248 -1769.19388837 1270.62099248 C-1768.53388837 1268.64099248 -1767.87388837 1266.66099248 -1767.19388837 1264.62099248 C-1766.53388837 1264.62099248 -1765.87388837 1264.62099248 -1765.19388837 1264.62099248 C-1764.96314618 1263.93650029 -1764.73240399 1263.25200811 -1764.49466962 1262.54677373 C-1762.89689776 1258.95298658 -1760.71030865 1255.94980699 -1758.38138837 1252.80849248 C-1755.49811928 1248.86519799 -1752.69655914 1244.94717254 -1750.19388837 1240.74599248 C-1749.53388837 1239.71474248 -1748.87388837 1238.68349248 -1748.19388837 1237.62099248 C-1747.53388837 1237.62099248 -1746.87388837 1237.62099248 -1746.19388837 1237.62099248 C-1745.92576337 1236.89525029 -1745.65763837 1236.16950811 -1745.38138837 1235.42177373 C-1744.20718456 1232.65235225 -1742.85445597 1230.31179814 -1741.19388837 1227.80849248 C-1740.67826337 1227.01829717 -1740.16263837 1226.22810186 -1739.63138837 1225.41396123 C-1739.15701337 1224.82228154 -1738.68263837 1224.23060186 -1738.19388837 1223.62099248 C-1737.53388837 1223.62099248 -1736.87388837 1223.62099248 -1736.19388837 1223.62099248 C-1735.53388837 1221.64099248 -1734.87388837 1219.66099248 -1734.19388837 1217.62099248 C-1733.53388837 1217.62099248 -1732.87388837 1217.62099248 -1732.19388837 1217.62099248 C-1731.93994305 1216.90298467 -1731.68599774 1216.18497686 -1731.42435712 1215.44521123 C-1730.10024017 1212.40604757 -1728.49681687 1210.0808797 -1726.50638837 1207.43349248 C-1725.78838055 1206.46540654 -1725.07037274 1205.49732061 -1724.33060712 1204.49989873 C-1723.62548993 1203.54985967 -1722.92037274 1202.59982061 -1722.19388837 1201.62099248 C-1718.89867917 1197.03150247 -1715.68803523 1192.394143 -1712.60404462 1187.66005498 C-1712.15400067 1186.9726624 -1711.70395673 1186.28526983 -1711.24027508 1185.57704717 C-1710.34378084 1184.20411922 -1709.45333113 1182.82722275 -1708.56937665 1181.44618779 C-1707.49555135 1179.80307002 -1706.350541 1178.20689647 -1705.19388837 1176.62099248 C-1704.53388837 1176.62099248 -1703.87388837 1176.62099248 -1703.19388837 1176.62099248 C-1703.19388837 1175.63099248 -1703.19388837 1174.64099248 -1703.19388837 1173.62099248 C-1702.53388837 1173.62099248 -1701.87388837 1173.62099248 -1701.19388837 1173.62099248 C-1700.96056805 1172.93392217 -1700.72724774 1172.24685186 -1700.48685712 1171.53896123 C-1698.91811839 1167.99863547 -1696.79187418 1165.03212472 -1694.50638837 1161.93349248 C-1693.59850976 1160.68242728 -1692.69095902 1159.4311241 -1691.78373212 1158.17958623 C-1691.34013348 1157.5709876 -1690.89653485 1156.96238897 -1690.43949383 1156.33534795 C-1685.35558767 1149.33825091 -1680.56048023 1142.17516526 -1675.89310712 1134.89442998 C-1675.05199383 1133.76907842 -1675.05199383 1133.76907842 -1674.19388837 1132.62099248 C-1673.53388837 1132.62099248 -1672.87388837 1132.62099248 -1672.19388837 1132.62099248 C-1671.53388837 1130.64099248 -1670.87388837 1128.66099248 -1670.19388837 1126.62099248 C-1669.53388837 1126.62099248 -1668.87388837 1126.62099248 -1668.19388837 1126.62099248 C-1667.92576337 1125.89525029 -1667.65763837 1125.16950811 -1667.38138837 1124.42177373 C-1666.20718456 1121.65235225 -1664.85445597 1119.31179814 -1663.19388837 1116.80849248 C-1662.67826337 1116.01829717 -1662.16263837 1115.22810186 -1661.63138837 1114.41396123 C-1661.15701337 1113.82228154 -1660.68263837 1113.23060186 -1660.19388837 1112.62099248 C-1659.53388837 1112.62099248 -1658.87388837 1112.62099248 -1658.19388837 1112.62099248 C-1657.79556805 1111.52464483 -1657.79556805 1111.52464483 -1657.38920087 1110.40614873 C-1656.199149 1107.63325011 -1654.84026913 1105.49311116 -1653.06888837 1103.05849248 C-1649.5072842 1098.10808669 -1646.18406431 1093.02806458 -1642.89310712 1087.89442998 C-1642.05199383 1086.76907842 -1642.05199383 1086.76907842 -1641.19388837 1085.62099248 C-1640.53388837 1085.62099248 -1639.87388837 1085.62099248 -1639.19388837 1085.62099248 C-1639.04951337 1085.00224248 -1638.90513837 1084.38349248 -1638.75638837 1083.74599248 C-1638.19388837 1081.62099248 -1638.19388837 1081.62099248 -1637.19388837 1079.62099248 C-1636.53388837 1079.62099248 -1635.87388837 1079.62099248 -1635.19388837 1079.62099248 C-1634.93994305 1078.90298467 -1634.68599774 1078.18497686 -1634.42435712 1077.44521123 C-1633.10024017 1074.40604757 -1631.49681687 1072.0808797 -1629.50638837 1069.43349248 C-1624.75145756 1063.02541369 -1620.17252609 1056.51208185 -1615.66263837 1049.92958623 C-1614.73557676 1048.57670676 -1613.80849283 1047.22384258 -1612.88138837 1045.87099248 C-1612.41418378 1045.18883672 -1611.94697919 1044.50668096 -1611.46561688 1043.80385381 C-1607.89948689 1038.61147561 -1604.24998163 1033.48407554 -1600.55985516 1028.37929326 C-1598.30286394 1025.23885251 -1596.18338662 1022.0618229 -1594.19388837 1018.74599248 C-1593.53388837 1017.71474248 -1592.87388837 1016.68349248 -1592.19388837 1015.62099248 C-1591.53388837 1015.62099248 -1590.87388837 1015.62099248 -1590.19388837 1015.62099248 C-1589.93035565 1014.89484746 -1589.66682294 1014.16870244 -1589.39530438 1013.42055303 C-1588.17776775 1010.58342795 -1586.76083792 1008.33792626 -1584.97123212 1005.82802373 C-1584.35054852 1004.9508167 -1583.72986493 1004.07360967 -1583.09037274 1003.16982061 C-1582.4439079 1002.26683233 -1581.79744305 1001.36384404 -1581.13138837 1000.43349248 C-1579.84775853 998.62826876 -1578.56515407 996.82231536 -1577.28373212 995.01552373 C-1576.43089642 993.82213384 -1576.43089642 993.82213384 -1575.56083173 992.60463506 C-1574.16197832 990.67323602 -1574.16197832 990.67323602 -1573.19388837 988.62099248 C-1572.53388837 988.62099248 -1571.87388837 988.62099248 -1571.19388837 988.62099248 C-1570.92576337 987.89525029 -1570.65763837 987.16950811 -1570.38138837 986.42177373 C-1569.20718456 983.65235225 -1567.85445597 981.31179814 -1566.19388837 978.80849248 C-1565.67826337 978.01829717 -1565.16263837 977.22810186 -1564.63138837 976.41396123 C-1563.91982587 975.5264417 -1563.91982587 975.5264417 -1563.19388837 974.62099248 C-1562.53388837 974.62099248 -1561.87388837 974.62099248 -1561.19388837 974.62099248 C-1561.04951337 974.00224248 -1560.90513837 973.38349248 -1560.75638837 972.74599248 C-1560.19388837 970.62099248 -1560.19388837 970.62099248 -1559.19388837 968.62099248 C-1558.53388837 968.62099248 -1557.87388837 968.62099248 -1557.19388837 968.62099248 C-1556.93994305 967.90298467 -1556.68599774 967.18497686 -1556.42435712 966.44521123 C-1555.10024017 963.40604757 -1553.49681687 961.0808797 -1551.50638837 958.43349248 C-1546.92283462 952.26108436 -1542.458893 946.01849943 -1538.19388837 939.62099248 C-1535.75598218 935.96413321 -1533.22064199 932.38043015 -1530.68216962 928.79286748 C-1529.1794679 926.70605347 -1529.1794679 926.70605347 -1528.19388837 924.62099248 C-1527.53388837 924.62099248 -1526.87388837 924.62099248 -1526.19388837 924.62099248 C-1525.94896649 923.92232061 -1525.70404462 923.22364873 -1525.45170087 922.50380498 C-1523.99946109 919.17537966 -1522.16167694 916.46381461 -1520.06888837 913.49599248 C-1519.67435467 912.93339727 -1519.27982098 912.37080205 -1518.87333173 911.7911585 C-1515.59253822 907.13042668 -1512.22602296 902.53285006 -1508.82279462 897.96083623 C-1507.38674282 895.89801842 -1506.2412679 893.89996403 -1505.19388837 891.62099248 C-1504.53388837 891.62099248 -1503.87388837 891.62099248 -1503.19388837 891.62099248 C-1502.92576337 890.89525029 -1502.65763837 890.16950811 -1502.38138837 889.42177373 C-1501.20718456 886.65235225 -1499.85445597 884.31179814 -1498.19388837 881.80849248 C-1497.67826337 881.01829717 -1497.16263837 880.22810186 -1496.63138837 879.41396123 C-1495.91982587 878.5264417 -1495.91982587 878.5264417 -1495.19388837 877.62099248 C-1494.53388837 877.62099248 -1493.87388837 877.62099248 -1493.19388837 877.62099248 C-1492.53388837 875.64099248 -1491.87388837 873.66099248 -1491.19388837 871.62099248 C-1490.53388837 871.62099248 -1489.87388837 871.62099248 -1489.19388837 871.62099248 C-1488.94381024 870.90942998 -1488.69373212 870.19786748 -1488.43607587 869.46474248 C-1487.06368203 866.32291006 -1485.36461347 863.86921187 -1483.31888837 861.12099248 C-1482.64084149 860.20317998 -1481.96279462 859.28536748 -1481.26420087 858.33974248 C-1479.91392247 856.5665467 -1478.5346357 854.81496281 -1477.12357587 853.08974248 C-1475.23982636 850.67976336 -1473.73808904 848.25884151 -1472.19388837 845.62099248 C-1470.53570455 842.99737403 -1468.83633233 840.40189342 -1467.13138837 837.80849248 C-1466.46139813 836.76918584 -1466.46139813 836.76918584 -1465.77787274 835.70888311 C-1464.63622619 833.97678857 -1463.42066631 832.2938715 -1462.19388837 830.62099248 C-1461.53388837 830.62099248 -1460.87388837 830.62099248 -1460.19388837 830.62099248 C-1459.92705243 829.88880498 -1459.66021649 829.15661748 -1459.38529462 828.40224248 C-1458.20922983 825.65680601 -1456.87936003 823.53426778 -1455.13138837 821.12099248 C-1452.34429879 817.2282806 -1449.59457668 813.31569889 -1446.88138837 809.37099248 C-1443.10750741 803.90828356 -1439.26706624 798.49701627 -1435.38016766 793.11415654 C-1433.10959853 789.97781698 -1433.10959853 789.97781698 -1431.19388837 786.62099248 C-1430.53388837 786.62099248 -1429.87388837 786.62099248 -1429.19388837 786.62099248 C-1428.53388837 784.64099248 -1427.87388837 782.66099248 -1427.19388837 780.62099248 C-1426.53388837 780.62099248 -1425.87388837 780.62099248 -1425.19388837 780.62099248 C-1424.92576337 779.89525029 -1424.65763837 779.16950811 -1424.38138837 778.42177373 C-1423.20718456 775.65235225 -1421.85445597 773.31179814 -1420.19388837 770.80849248 C-1419.67826337 770.01829717 -1419.16263837 769.22810186 -1418.63138837 768.41396123 C-1417.91982587 767.5264417 -1417.91982587 767.5264417 -1417.19388837 766.62099248 C-1416.53388837 766.62099248 -1415.87388837 766.62099248 -1415.19388837 766.62099248 C-1414.88257977 765.64646123 -1414.88257977 765.64646123 -1414.56498212 764.65224248 C-1412.6505395 760.41974257 -1409.97891748 756.86973055 -1407.25638837 753.12099248 C-1406.18314118 751.63258501 -1405.11148213 750.14303088 -1404.04154462 748.65224248 C-1403.29155194 747.61003545 -1403.29155194 747.61003545 -1402.5264079 746.54677373 C-1401.05724326 744.47884232 -1401.05724326 744.47884232 -1399.43998212 741.58974248 C-1399.02877118 740.94005498 -1398.61756024 740.29036748 -1398.19388837 739.62099248 C-1397.53388837 739.62099248 -1396.87388837 739.62099248 -1396.19388837 739.62099248 C-1396.04951337 739.00224248 -1395.90513837 738.38349248 -1395.75638837 737.74599248 C-1395.19388837 735.62099248 -1395.19388837 735.62099248 -1394.19388837 733.62099248 C-1393.53388837 733.62099248 -1392.87388837 733.62099248 -1392.19388837 733.62099248 C-1391.93994305 732.90298467 -1391.68599774 732.18497686 -1391.42435712 731.44521123 C-1390.10024017 728.40604757 -1388.49681687 726.0808797 -1386.50638837 723.43349248 C-1383.89763119 719.92080329 -1381.31534249 716.40196326 -1378.81888837 712.80849248 C-1375.50464686 708.04665123 -1372.13317233 703.32732923 -1368.7451579 698.61781865 C-1365.40766888 693.96444741 -1362.2270836 689.2234198 -1359.12357587 684.41005498 C-1358.44552899 683.36591436 -1357.76748212 682.32177373 -1357.06888837 681.24599248 C-1356.38568524 680.18638311 -1355.70248212 679.12677373 -1354.99857587 678.03505498 C-1354.40302899 677.23841436 -1353.80748212 676.44177373 -1353.19388837 675.62099248 C-1352.53388837 675.62099248 -1351.87388837 675.62099248 -1351.19388837 675.62099248 C-1350.53388837 673.64099248 -1349.87388837 671.66099248 -1349.19388837 669.62099248 C-1348.53388837 669.62099248 -1347.87388837 669.62099248 -1347.19388837 669.62099248 C-1346.84777508 668.5942542 -1346.84777508 668.5942542 -1346.49466962 667.54677373 C-1344.89689776 663.95298658 -1342.71030865 660.94980699 -1340.38138837 657.80849248 C-1337.49811928 653.86519799 -1334.69655914 649.94717254 -1332.19388837 645.74599248 C-1331.53388837 644.71474248 -1330.87388837 643.68349248 -1330.19388837 642.62099248 C-1329.53388837 642.62099248 -1328.87388837 642.62099248 -1328.19388837 642.62099248 C-1327.96701337 641.94036748 -1327.74013837 641.25974248 -1327.50638837 640.55849248 C-1324.05821255 632.8411466 -1324.05821255 632.8411466 -1321.19388837 630.62099248 C-1316.40123237 629.53667923 -1311.59793566 629.69395657 -1306.71042413 629.75965768 C-1305.19016352 629.7544807 -1303.66991081 629.74623109 -1302.14968154 629.7351822 C-1297.95154508 629.71364426 -1293.75459012 629.7359663 -1289.55654146 629.76512913 C-1284.99742387 629.7891217 -1280.4384289 629.77258206 -1275.87928772 629.7610867 C-1267.88222145 629.74655103 -1259.8855192 629.75810947 -1251.88849515 629.78655416 C-1239.99722098 629.82873311 -1228.10617719 629.83091102 -1216.21484185 629.82476024 C-1196.21357787 629.81555414 -1176.21247552 629.83898598 -1156.21125859 629.88088208 C-1136.40145763 629.92227107 -1116.59172396 629.94923758 -1096.78188008 629.95685178 C-1095.55114784 629.95733296 -1094.3204156 629.95781414 -1093.05238844 629.95830989 C-1086.80237341 629.96067816 -1080.55235832 629.96278787 -1074.30234317 629.96479803 C-1030.0089045 629.97950926 -985.71554815 630.02668857 -941.42215985 630.09291631 C-930.68393997 630.10895782 -919.94571995 630.12488531 -909.20749921 630.14034063 C-908.54152072 630.14129927 -907.87554224 630.14225791 -907.18938259 630.14324561 C-876.23417377 630.18764786 -845.27895741 630.21373126 -814.32372511 630.23508419 C-812.3142786 630.23647064 -810.3048321 630.23786499 -808.2953856 630.23926095 C-794.97876475 630.24849935 -781.6621437 630.25742114 -768.3455225 630.26613296 C-741.21691762 630.28388747 -714.08831432 630.30363624 -686.95971173 630.3245905 C-685.71232402 630.32555153 -684.4649363 630.32651256 -683.17974896 630.32750272 C-599.85109217 630.39193057 -516.52248417 630.50284967 -433.19388837 630.62099248 C-432.7501286 629.46192388 -432.7501286 629.46192388 -432.29740399 628.27943975 C-431.08625575 625.36169789 -429.55346348 623.10752871 -427.69388837 620.55849248 C-425.58325635 617.65637346 -423.70032331 614.88242413 -422.19388837 611.62099248 C-421.53388837 611.62099248 -420.87388837 611.62099248 -420.19388837 611.62099248 C-419.96701337 610.95712529 -419.74013837 610.29325811 -419.50638837 609.60927373 C-417.79671037 605.7167033 -415.55500198 602.33329781 -413.19388837 598.80849248 C-412.51713055 597.76918584 -412.51713055 597.76918584 -411.82670087 596.70888311 C-410.6715469 594.97444335 -409.43850577 593.29239593 -408.19388837 591.62099248 C-407.53388837 591.62099248 -406.87388837 591.62099248 -406.19388837 591.62099248 C-406.04951337 591.00224248 -405.90513837 590.38349248 -405.75638837 589.74599248 C-405.19388837 587.62099248 -405.19388837 587.62099248 -404.19388837 585.62099248 C-403.53388837 585.62099248 -402.87388837 585.62099248 -402.19388837 585.62099248 C-401.8129704 584.55944951 -401.8129704 584.55944951 -401.42435712 583.47646123 C-400.07607636 580.34759383 -398.42088195 577.75069424 -396.50638837 574.93349248 C-395.42744305 573.34214483 -395.42744305 573.34214483 -394.32670087 571.71864873 C-391.95912525 568.280027 -389.57413792 564.85476012 -387.17045087 561.44130498 C-380.66686119 552.16147939 -374.29095293 542.79757655 -368.02591962 533.35536748 C-364.53462836 528.14448501 -360.90636191 523.02959348 -357.27201337 517.91786748 C-356.64810712 517.03614873 -356.02420087 516.15442998 -355.38138837 515.24599248 C-354.81806805 514.45450811 -354.25474774 513.66302373 -353.67435712 512.84755498 C-352.32890303 510.82404884 -351.22263958 508.81900728 -350.19388837 506.62099248 C-349.53388837 506.62099248 -348.87388837 506.62099248 -348.19388837 506.62099248 C-347.53388837 504.64099248 -346.87388837 502.66099248 -346.19388837 500.62099248 C-345.53388837 500.62099248 -344.87388837 500.62099248 -344.19388837 500.62099248 C-343.96701337 499.95712529 -343.74013837 499.29325811 -343.50638837 498.60927373 C-341.79671037 494.7167033 -339.55500198 491.33329781 -337.19388837 487.80849248 C-336.51713055 486.76918584 -336.51713055 486.76918584 -335.82670087 485.70888311 C-334.6715469 483.97444335 -333.43850577 482.29239593 -332.19388837 480.62099248 C-331.53388837 480.62099248 -330.87388837 480.62099248 -330.19388837 480.62099248 C-329.95670087 479.94681279 -329.71951337 479.27263311 -329.47513837 478.57802373 C-327.88360991 474.9048925 -325.85874754 471.66644496 -323.69388837 468.30849248 C-323.2904118 467.6633167 -322.88693524 467.01814092 -322.47123212 466.35341436 C-321.43543095 464.73817986 -320.32048288 463.17426365 -319.19388837 461.62099248 C-318.53388837 461.62099248 -317.87388837 461.62099248 -317.19388837 461.62099248 C-317.04951337 461.00224248 -316.90513837 460.38349248 -316.75638837 459.74599248 C-316.19388837 457.62099248 -316.19388837 457.62099248 -315.19388837 455.62099248 C-314.53388837 455.62099248 -313.87388837 455.62099248 -313.19388837 455.62099248 C-313.04951337 455.00224248 -312.90513837 454.38349248 -312.75638837 453.74599248 C-312.19388837 451.62099248 -312.19388837 451.62099248 -311.19388837 449.62099248 C-310.53388837 449.62099248 -309.87388837 449.62099248 -309.19388837 449.62099248 C-308.79170087 448.51884404 -308.79170087 448.51884404 -308.38138837 447.39442998 C-307.22141918 444.68529143 -305.92637381 442.61983072 -304.19388837 440.24599248 C-301.18915999 436.04930574 -298.29125854 431.79979222 -295.44388837 427.49599248 C-291.26361644 421.18778901 -286.99905608 414.94153551 -282.6850993 408.72401983 C-280.26851083 405.27650786 -280.26851083 405.27650786 -278.19388837 401.62099248 C-277.53388837 401.62099248 -276.87388837 401.62099248 -276.19388837 401.62099248 C-275.53388837 399.64099248 -274.87388837 397.66099248 -274.19388837 395.62099248 C-273.53388837 395.62099248 -272.87388837 395.62099248 -272.19388837 395.62099248 C-271.96443524 394.94423467 -271.73498212 394.26747686 -271.49857587 393.57021123 C-269.85220768 389.84863046 -267.66500768 386.74488873 -265.31888837 383.43349248 C-262.10823975 378.85040654 -258.93255447 374.25383153 -255.86966962 369.57021123 C-255.05828534 368.33210698 -255.05828534 368.33210698 -254.23050946 367.06899053 C-253.17475999 365.45280734 -252.12418811 363.83322864 -251.07914227 362.21010381 C-250.60009442 361.47944707 -250.12104657 360.74879033 -249.62748212 359.99599248 C-249.20523358 359.34372686 -248.78298505 358.69146123 -248.3479411 358.01942998 C-247.776685 357.32720342 -247.776685 357.32720342 -247.19388837 356.62099248 C-246.53388837 356.62099248 -245.87388837 356.62099248 -245.19388837 356.62099248 C-245.04951337 356.00224248 -244.90513837 355.38349248 -244.75638837 354.74599248 C-244.19388837 352.62099248 -244.19388837 352.62099248 -243.19388837 350.62099248 C-242.53388837 350.62099248 -241.87388837 350.62099248 -241.19388837 350.62099248 C-241.04951337 350.00224248 -240.90513837 349.38349248 -240.75638837 348.74599248 C-240.19388837 346.62099248 -240.19388837 346.62099248 -239.19388837 344.62099248 C-238.53388837 344.62099248 -237.87388837 344.62099248 -237.19388837 344.62099248 C-236.9657243 343.94036748 -236.73756024 343.25974248 -236.50248212 342.55849248 C-234.85817009 338.86738011 -232.65252553 335.85733358 -230.25638837 332.62099248 C-227.37941414 328.70127214 -224.69252587 324.79562025 -222.19388837 320.62099248 C-219.48211848 316.57535569 -216.69993616 312.57764261 -213.93216962 308.57021123 C-213.3688493 307.75165654 -212.80552899 306.93310186 -212.22513837 306.08974248 C-211.42269696 304.92378545 -211.42269696 304.92378545 -210.60404462 303.73427373 C-209.47409532 302.04091482 -208.42840177 300.29146313 -207.41263837 298.52724248 C-207.01045087 297.89817998 -206.60826337 297.26911748 -206.19388837 296.62099248 C-205.53388837 296.62099248 -204.87388837 296.62099248 -204.19388837 296.62099248 C-203.53388837 294.64099248 -202.87388837 292.66099248 -202.19388837 290.62099248 C-201.53388837 290.62099248 -200.87388837 290.62099248 -200.19388837 290.62099248 C-199.8419743 289.5942542 -199.8419743 289.5942542 -199.48295087 288.54677373 C-197.91520806 284.98847263 -195.80889485 281.96322569 -193.56888837 278.80849248 C-189.96202659 273.66559331 -186.42785375 268.48489697 -182.97904462 263.23427373 C-181.900341 261.59519048 -181.900341 261.59519048 -180.7998454 259.92299443 C-179.36201005 257.73354127 -177.9293277 255.54069481 -176.50199383 253.34438115 C-175.51223553 251.84161626 -175.51223553 251.84161626 -174.50248212 250.30849248 C-173.91265546 249.40485967 -173.3228288 248.50122686 -172.7151286 247.57021123 C-172.21311932 246.92696904 -171.71111005 246.28372686 -171.19388837 245.62099248 C-170.53388837 245.62099248 -169.87388837 245.62099248 -169.19388837 245.62099248 C-169.04951337 245.00224248 -168.90513837 244.38349248 -168.75638837 243.74599248 C-168.19388837 241.62099248 -168.19388837 241.62099248 -167.19388837 239.62099248 C-166.53388837 239.62099248 -165.87388837 239.62099248 -165.19388837 239.62099248 C-164.8129704 238.55944951 -164.8129704 238.55944951 -164.42435712 237.47646123 C-163.07607636 234.34759383 -161.42088195 231.75069424 -159.50638837 228.93349248 C-158.78709149 227.87259404 -158.06779462 226.81169561 -157.32670087 225.71864873 C-154.96548058 222.28925736 -152.58695486 218.87312504 -150.18998212 215.46864873 C-147.59067256 211.76043607 -145.01462808 208.03655028 -142.44388837 204.30849248 C-141.73558881 203.28513799 -141.73558881 203.28513799 -141.01298016 202.24110967 C-139.06504292 199.4126839 -137.19625631 196.62513638 -135.49076337 193.64052373 C-135.06279462 192.97407842 -134.63482587 192.30763311 -134.19388837 191.62099248 C-133.53388837 191.62099248 -132.87388837 191.62099248 -132.19388837 191.62099248 C-131.53388837 189.64099248 -130.87388837 187.66099248 -130.19388837 185.62099248 C-129.53388837 185.62099248 -128.87388837 185.62099248 -128.19388837 185.62099248 C-127.53388837 183.64099248 -126.87388837 181.66099248 -126.19388837 179.62099248 C-125.53388837 179.62099248 -124.87388837 179.62099248 -124.19388837 179.62099248 C-123.92455487 178.88614629 -123.65522137 178.1513001 -123.37772626 177.39418584 C-122.23147528 174.70904151 -120.95039154 172.6149476 -119.25248212 170.24989873 C-118.67272626 169.43424443 -118.0929704 168.61859014 -117.49564618 167.77821904 C-116.8804411 166.92195928 -116.26523602 166.06569951 -115.63138837 165.18349248 C-110.46097061 157.9183245 -105.52520637 150.58261659 -100.86576337 142.98036748 C-100.31404462 142.20177373 -99.76232587 141.42317998 -99.19388837 140.62099248 C-98.53388837 140.62099248 -97.87388837 140.62099248 -97.19388837 140.62099248 C-97.04951337 140.00224248 -96.90513837 139.38349248 -96.75638837 138.74599248 C-96.19388837 136.62099248 -96.19388837 136.62099248 -95.19388837 134.62099248 C-94.53388837 134.62099248 -93.87388837 134.62099248 -93.19388837 134.62099248 C-92.53388837 132.64099248 -91.87388837 130.66099248 -91.19388837 128.62099248 C-90.53388837 128.62099248 -89.87388837 128.62099248 -89.19388837 128.62099248 C-88.98763837 127.96099248 -88.78138837 127.30099248 -88.56888837 126.62099248 C-87.01505519 123.230811 -85.02850479 120.60045475 -82.72904462 117.68349248 C-81.03962494 115.4137378 -79.64913758 113.04807205 -78.19388837 110.62099248 C-75.90728717 107.05683412 -73.57853652 103.5211518 -71.24149579 99.98988897 C-70.4967622 98.86189683 -69.75493126 97.73198331 -69.01590985 96.60024053 C-67.94515491 94.96087615 -66.86459929 93.32792611 -65.78373212 91.69521123 C-64.82261517 90.2347437 -64.82261517 90.2347437 -63.84208173 88.74477178 C-63.29817792 88.04392461 -62.75427411 87.34307744 -62.19388837 86.62099248 C-61.53388837 86.62099248 -60.87388837 86.62099248 -60.19388837 86.62099248 C-59.53388837 84.64099248 -58.87388837 82.66099248 -58.19388837 80.62099248 C-57.53388837 80.62099248 -56.87388837 80.62099248 -56.19388837 80.62099248 C-55.53388837 78.64099248 -54.87388837 76.66099248 -54.19388837 74.62099248 C-53.53388837 74.62099248 -52.87388837 74.62099248 -52.19388837 74.62099248 C-51.94767743 73.91200811 -51.70146649 73.20302373 -51.44779462 72.47255498 C-50.03615154 69.26227633 -48.249614 66.7869758 -46.13138837 63.99599248 C-43.14643188 60.08323245 -43.14643188 60.08323245 -41.19388837 55.62099248 C-40.53388837 55.62099248 -39.87388837 55.62099248 -39.19388837 55.62099248 C-38.96701337 54.95712529 -38.74013837 54.29325811 -38.50638837 53.60927373 C-36.79671037 49.7167033 -34.55500198 46.33329781 -32.19388837 42.80849248 C-31.51713055 41.76918584 -31.51713055 41.76918584 -30.82670087 40.70888311 C-29.6715469 38.97444335 -28.43850577 37.29239593 -27.19388837 35.62099248 C-26.53388837 35.62099248 -25.87388837 35.62099248 -25.19388837 35.62099248 C-25.04951337 35.00224248 -24.90513837 34.38349248 -24.75638837 33.74599248 C-24.19388837 31.62099248 -24.19388837 31.62099248 -23.19388837 29.62099248 C-22.53388837 29.62099248 -21.87388837 29.62099248 -21.19388837 29.62099248 C-20.53388837 27.64099248 -19.87388837 25.66099248 -19.19388837 23.62099248 C-18.53388837 23.62099248 -17.87388837 23.62099248 -17.19388837 23.62099248 C-16.98763837 22.96099248 -16.78138837 22.30099248 -16.56888837 21.62099248 C-14.99356139 18.18391545 -12.94993611 15.51822779 -10.64701337 12.53896123 C-8.37748597 9.5434291 -6.55746511 6.45988109 -5.06440628 3.01491368 C-3.19388837 0.62099248 -3.19388837 0.62099248 0 0 Z " fill="#0060CC" transform="translate(2265.1938883662224,724.3790075182915)"/>
<path d="M0 0 C385.77 0 771.54 0 1169 0 C1169 0.99 1169 1.98 1169 3 C1168.34 3.33 1167.68 3.66 1167 4 C1166.24207617 5.26320638 1165.54313583 6.56208972 1164.875 7.875 C1163.03572353 11.29311525 1161.04792353 14.39208286 1158.7109375 17.48828125 C1152.06020315 26.53413048 1145.9569835 35.95982746 1139.75 45.3125 C1138.47157103 47.23517026 1137.19292681 49.1576974 1135.9140625 51.08007812 C1133.06886339 55.35773822 1130.22578499 59.63679866 1127.38458252 63.91711426 C1126.15615941 65.76508283 1124.92350702 67.61013584 1123.68945312 69.4543457 C1122.29096955 71.56156943 1120.98491161 73.6698007 1119.75 75.875 C1119.1725 76.90625 1118.595 77.9375 1118 79 C1117.34 79 1116.68 79 1116 79 C1115.855625 79.61875 1115.71125 80.2375 1115.5625 80.875 C1115 83 1115 83 1114 85 C1113.34 85 1112.68 85 1112 85 C1111.855625 85.61875 1111.71125 86.2375 1111.5625 86.875 C1111 89 1111 89 1110 91 C1109.34 91 1108.68 91 1108 91 C1107.855625 91.61875 1107.71125 92.2375 1107.5625 92.875 C1107 95 1107 95 1106 97 C1105.34 97 1104.68 97 1104 97 C1104 97.99 1104 98.98 1104 100 C1103.34 100 1102.68 100 1102 100 C1101.731875 100.928125 1101.46375 101.85625 1101.1875 102.8125 C1100.00689802 105.98148427 1099.32246203 106.76686344 1097 109 C1096.07439202 110.63152379 1095.1499687 112.26373116 1094.23156738 113.89932251 C1091.8598581 117.94473356 1089.18021351 121.78998289 1086.546875 125.66796875 C1085.61829681 127.04206657 1085.61829681 127.04206657 1084.67095947 128.44392395 C1082.69964996 131.36004274 1080.72494415 134.27384186 1078.75 137.1875 C1076.79446654 140.07731167 1074.83963935 142.96760013 1072.8848877 145.85794067 C1071.62628702 147.71886127 1070.36742018 149.57960189 1069.10827637 151.44015503 C1064.71008318 157.94123527 1060.34032386 164.46011707 1056 171 C1055.29746094 172.04969971 1054.59492187 173.09939941 1053.87109375 174.1809082 C1052.41002795 176.38222955 1051.03958107 178.57217666 1049.75 180.875 C1049.1725 181.90625 1048.595 182.9375 1048 184 C1047.34 184 1046.68 184 1046 184 C1045.855625 184.61875 1045.71125 185.2375 1045.5625 185.875 C1045 188 1045 188 1044 190 C1043.34 190 1042.68 190 1042 190 C1041.855625 190.61875 1041.71125 191.2375 1041.5625 191.875 C1041 194 1041 194 1040 196 C1039.34 196 1038.68 196 1038 196 C1037.855625 196.61875 1037.71125 197.2375 1037.5625 197.875 C1037 200 1037 200 1036 202 C1035.34 202 1034.68 202 1034 202 C1034 202.99 1034 203.98 1034 205 C1033.34 205 1032.68 205 1032 205 C1031.5978125 206.3921875 1031.5978125 206.3921875 1031.1875 207.8125 C1030.00689802 210.98148427 1029.32246203 211.76686344 1027 214 C1026.07439202 215.63152379 1025.1499687 217.26373116 1024.23156738 218.89932251 C1021.8598581 222.94473356 1019.18021351 226.78998289 1016.546875 230.66796875 C1015.92782288 231.58403397 1015.30877075 232.50009918 1014.67095947 233.44392395 C1012.69964996 236.36004274 1010.72494415 239.27384186 1008.75 242.1875 C1006.79446654 245.07731167 1004.83963935 247.96760013 1002.8848877 250.85794067 C1001.62628702 252.71886127 1000.36742018 254.57960189 999.10827637 256.44015503 C994.71008318 262.94123527 990.34032386 269.46011707 986 276 C984.94619141 277.57454956 984.94619141 277.57454956 983.87109375 279.1809082 C982.41002795 281.38222955 981.03958107 283.57217666 979.75 285.875 C979.1725 286.90625 978.595 287.9375 978 289 C977.34 289 976.68 289 976 289 C975.855625 289.61875 975.71125 290.2375 975.5625 290.875 C975 293 975 293 974 295 C973.34 295 972.68 295 972 295 C971.855625 295.61875 971.71125 296.2375 971.5625 296.875 C971 299 971 299 970 301 C969.34 301 968.68 301 968 301 C967.855625 301.61875 967.71125 302.2375 967.5625 302.875 C967 305 967 305 966 307 C965.34 307 964.68 307 964 307 C964 307.99 964 308.98 964 310 C963.34 310 962.68 310 962 310 C961.34 311.98 960.68 313.96 960 316 C888.19019016 316.30848916 816.38030074 316.59468285 744.57000732 316.76217651 C743.50731216 316.76466154 742.44461701 316.76714657 741.34971896 316.7697069 C718.25487745 316.82357837 695.16002891 316.87344176 672.06516989 316.91917593 C660.73957134 316.94162813 649.41397469 316.96496607 638.08837891 316.98876953 C636.96134178 316.99112319 635.83430466 316.99347686 634.67311489 316.99590184 C598.13785801 317.07261594 561.603102 317.20782611 525.0681486 317.37334997 C487.52587383 317.54312877 449.98387628 317.65393589 412.44122409 317.69046982 C407.13946271 317.69565666 401.83770228 317.70151812 396.53594208 317.70779037 C395.49247254 317.70900399 394.449003 317.7102176 393.37391318 317.71146799 C376.57193666 317.73274502 359.77081693 317.81624451 342.96918992 317.92297661 C326.08055828 318.02893485 309.19277657 318.06942764 292.30382416 318.04302479 C282.26709959 318.02932584 272.23348388 318.06588894 262.19732042 318.17435578 C255.49198948 318.2418772 248.78869287 318.24393926 242.0832212 318.19297264 C238.26147669 318.16579344 234.44560394 318.16688358 230.62449101 318.24789728 C208.61060099 318.68776322 208.61060099 318.68776322 202.66021532 314.25824365 C198.78387423 310.09863744 196.31770447 305.47685424 194.06876072 300.2933533 C192.3507172 296.60676498 190.02446805 293.37700492 187.6875 290.0625 C186.87156099 288.84735424 186.0585658 287.6302206 185.25 286.41015625 C184.86972656 285.83668457 184.48945312 285.26321289 184.09765625 284.67236328 C181.86441661 281.26985182 179.70341486 277.82155162 177.5390625 274.375 C176.11944033 272.18431402 174.62262786 270.09179154 173.0625 268 C171 265 171 265 171 262 C170.34 262 169.68 262 169 262 C167 259 167 259 167 256 C166.34 256 165.68 256 165 256 C163 253 163 253 163 250 C162.34 250 161.68 250 161 250 C160.72027344 249.46632813 160.44054687 248.93265625 160.15234375 248.3828125 C157.27704562 243.03901082 154.06516769 238.13797638 150.453125 233.26171875 C149.06909335 231.10754045 148.43491359 229.50075315 148 227 C147.34 227 146.68 227 146 227 C145.34 225.02 144.68 223.04 144 221 C143.34 221 142.68 221 142 221 C141.57497192 220.20166748 141.57497192 220.20166748 141.14135742 219.38720703 C137.84825468 213.31885527 134.17856866 207.59153553 130.3125 201.875 C129.39102173 200.50239014 129.39102173 200.50239014 128.45092773 199.10205078 C127.21411467 197.25981038 125.97594061 195.41848288 124.73632812 193.578125 C122.3370996 190.01571594 119.94731757 186.44706847 117.5625 182.875 C117.1617627 182.2754248 116.76102539 181.67584961 116.34814453 181.05810547 C113.33873967 176.5421118 110.42496629 171.97056243 107.5390625 167.375 C106.11944033 165.18431402 104.62262786 163.09179154 103.0625 161 C101 158 101 158 101 155 C100.34 155 99.68 155 99 155 C97 152 97 152 97 149 C96.34 149 95.68 149 95 149 C93 146 93 146 93 143 C92.34 143 91.68 143 91 143 C90.34 141.02 89.68 139.04 89 137 C88.34 137 87.68 137 87 137 C86.68546875 136.41992188 86.3709375 135.83984375 86.046875 135.2421875 C84.04602215 131.59002839 82.05953999 127.98877999 79.6875 124.5625 C78 122 78 122 78 120 C77.34 120 76.68 120 76 120 C75.34 118.02 74.68 116.04 74 114 C73.34 114 72.68 114 72 114 C71.57497192 113.20166748 71.57497192 113.20166748 71.14135742 112.38720703 C67.8482616 106.31886802 64.17865915 100.59146068 60.3125 94.875 C59.06118307 93.01172872 57.80988105 91.14844743 56.55859375 89.28515625 C55.94999512 88.38168457 55.34139648 87.47821289 54.71435547 86.54736328 C52.03165299 82.56113177 49.36862444 78.5618627 46.71069336 74.55908203 C44.40134463 71.08573741 42.06892423 67.62947566 39.71875 64.18359375 C39.1633252 63.3639917 38.60790039 62.54438965 38.03564453 61.69995117 C36.94847141 60.09604316 35.85589288 58.49578263 34.75732422 56.8996582 C34.2676416 56.17480225 33.77795898 55.44994629 33.2734375 54.703125 C32.83435059 54.06020508 32.39526367 53.41728516 31.94287109 52.75488281 C31 51 31 51 31 48 C30.34 48 29.68 48 29 48 C27 45 27 45 27 42 C26.34 42 25.68 42 25 42 C24.34 40.02 23.68 38.04 23 36 C22.34 36 21.68 36 21 36 C19.93681326 34.37291311 18.94867795 32.69640441 18 31 C13.30785069 23.44903407 13.30785069 23.44903407 8.1875 16.1875 C6.0893866 13.13024904 4.9554749 10.56131554 4 7 C3.34 7 2.68 7 2 7 C0.5393715 4.35261084 0 3.10551666 0 0 Z " fill="#005CCB" transform="translate(634,722)"/>
<path d="M0 0 C1.06096826 -0.00250352 2.12193653 -0.00500704 3.21505535 -0.00758642 C4.38711501 -0.00524525 5.55917467 -0.00290409 6.76675129 -0.00049198 C8.01195706 -0.00194542 9.25716284 -0.00339886 10.54010212 -0.00489634 C14.01842871 -0.00881167 17.49672776 -0.00644932 20.97505392 -0.00311839 C24.75087023 -0.00059286 28.52668216 -0.00383715 32.30249786 -0.00636172 C38.92738378 -0.00998292 45.55226156 -0.00985803 52.17714787 -0.00731456 C62.02834954 -0.00354265 71.87954431 -0.0054603 81.73074594 -0.00852287 C99.32175868 -0.01379774 116.91276779 -0.01332859 134.50378087 -0.01044396 C149.89764636 -0.0079319 165.29151052 -0.00727006 180.68537617 -0.0084666 C181.7050858 -0.00854299 182.72479544 -0.00861937 183.77540537 -0.00869807 C187.91437092 -0.00900939 192.05333648 -0.00932779 196.19230203 -0.00965784 C235.04701664 -0.01271927 273.90172894 -0.00993952 312.75644319 -0.00456094 C347.30328154 0.00018493 381.85011621 -0.00023968 416.39695454 -0.00502193 C455.17900143 -0.01037246 493.96104628 -0.01250218 532.74309349 -0.00940967 C536.87467225 -0.00908893 541.00625102 -0.00877609 545.13782978 -0.0084666 C546.66386526 -0.00834799 546.66386526 -0.00834799 548.22072973 -0.00822697 C563.60779017 -0.0070878 578.99484914 -0.00842293 594.38190937 -0.01094615 C611.87147608 -0.01379979 629.36103859 -0.01310261 646.85060477 -0.00766541 C656.64806414 -0.00472032 666.44551442 -0.00455009 676.24297356 -0.00831159 C682.77740823 -0.0105444 689.31183556 -0.00917584 695.84626913 -0.00480682 C699.57593186 -0.00241517 703.30557644 -0.00164118 707.03523862 -0.0052128 C711.04232597 -0.00901118 715.04936828 -0.00516917 719.05645466 -0.00049198 C720.22851432 -0.00283314 721.40057398 -0.00517431 722.6081506 -0.00758642 C723.66911887 -0.0050829 724.73008713 -0.00257938 725.82320595 0 C726.7404807 0.00006776 727.65775546 0.00013552 728.60282642 0.00020533 C730.91160297 0.12534916 730.91160297 0.12534916 733.91160297 1.12534916 C735.38425922 3.10191166 735.38425922 3.10191166 736.97410297 5.75034916 C739.82017749 10.38196096 742.75267301 14.9287109 745.78660297 19.43784916 C749.90311857 25.57841655 753.92585407 31.77313363 757.90379047 38.00425541 C759.23984731 40.08112197 760.594052 42.14642784 761.96629047 44.19956791 C763.75753091 46.89362231 765.48229801 49.61043292 767.16160297 52.37534916 C767.68238422 53.22613041 768.20316547 54.07691166 768.73972797 54.95347416 C769.91160297 57.12534916 769.91160297 57.12534916 769.91160297 59.12534916 C770.57160297 59.12534916 771.23160297 59.12534916 771.91160297 59.12534916 C772.57160297 61.10534916 773.23160297 63.08534916 773.91160297 65.12534916 C774.57160297 65.12534916 775.23160297 65.12534916 775.91160297 65.12534916 C776.15652485 65.60101323 776.40144672 66.07667729 776.65379047 66.56675541 C780.40454527 73.58972043 784.82635527 80.11326734 789.27830219 86.70054448 C797.96280347 99.59358883 806.49160787 112.58936873 815.02537251 125.58238041 C816.62246 128.01363712 818.21999297 130.4446001 819.81785297 132.87534916 C820.33664021 133.66464818 820.85542744 134.45394719 821.38993549 135.26716435 C824.63193088 140.19466201 827.89680797 145.106184 831.17722797 150.00816166 C835.59587724 156.61574484 839.89720229 163.29192438 844.16160297 170.00034916 C845.49930222 172.10244798 846.83782981 174.20401994 848.17722797 176.30503666 C848.80435688 177.28955815 849.43148579 178.27407963 850.0776186 179.2884351 C852.28137082 182.69732764 854.55963262 186.05124502 856.87156391 189.3875562 C857.91160297 191.12534916 857.91160297 191.12534916 857.91160297 193.12534916 C858.57160297 193.12534916 859.23160297 193.12534916 859.91160297 193.12534916 C860.15652485 193.60101323 860.40144672 194.07667729 860.65379047 194.56675541 C863.40489009 199.71795227 866.47519042 204.59219092 869.72410297 209.43784916 C870.36750629 210.39751591 870.36750629 210.39751591 871.02390766 211.37656987 C873.11228835 214.47985359 875.21630177 217.5716791 877.33738422 220.65269291 C878.06312641 221.71616948 878.7888686 222.77964604 879.53660297 223.87534916 C880.1888686 224.81894291 880.84113422 225.76253666 881.51316547 226.73472416 C882.91160297 229.12534916 882.91160297 229.12534916 882.91160297 232.12534916 C883.57160297 232.12534916 884.23160297 232.12534916 884.91160297 232.12534916 C886.91160297 235.12534916 886.91160297 235.12534916 886.91160297 238.12534916 C887.57160297 238.12534916 888.23160297 238.12534916 888.91160297 238.12534916 C890.91160297 241.12534916 890.91160297 241.12534916 890.91160297 244.12534916 C891.57160297 244.12534916 892.23160297 244.12534916 892.91160297 244.12534916 C894.55201837 246.3668554 896.05822384 248.59323226 897.53660297 250.93784916 C897.95683735 251.58044682 898.37707172 252.22304448 898.81004047 252.88511479 C901.91160297 257.74389371 901.91160297 257.74389371 901.91160297 261.12534916 C902.57160297 261.12534916 903.23160297 261.12534916 903.91160297 261.12534916 C905.91160297 264.12534916 905.91160297 264.12534916 905.91160297 267.12534916 C906.57160297 267.12534916 907.23160297 267.12534916 907.91160297 267.12534916 C909.91160297 270.12534916 909.91160297 270.12534916 909.91160297 273.12534916 C910.57160297 273.12534916 911.23160297 273.12534916 911.91160297 273.12534916 C912.57160297 275.10534916 913.23160297 277.08534916 913.91160297 279.12534916 C914.57160297 279.12534916 915.23160297 279.12534916 915.91160297 279.12534916 C917.35691547 281.10972416 917.35691547 281.10972416 919.03660297 283.87534916 C921.68071225 288.1512832 924.37273741 292.37955082 927.16160297 296.56284916 C928.12839985 298.01497807 928.12839985 298.01497807 929.11472797 299.49644291 C930.80820595 302.08819472 930.80820595 302.08819472 932.64597797 304.09800541 C933.91160297 306.12534916 933.91160297 306.12534916 933.91160297 312.12534916 C555.73160297 312.12534916 177.55160297 312.12534916 -212.08839703 312.12534916 C-212.08839703 306.71839415 -211.56939092 305.77636938 -208.58839703 301.56284916 C-207.8639439 300.52515385 -207.13949078 299.48745854 -206.39308453 298.41831791 C-206.01377789 297.88126225 -205.63447124 297.34420659 -205.24367046 296.79087651 C-204.07560539 295.1069078 -202.95537249 293.3993814 -201.84620953 291.67613041 C-201.1423814 290.5868726 -200.43855328 289.49761479 -199.71339703 288.37534916 C-199.06628765 287.36988041 -198.41917828 286.36441166 -197.75245953 285.32847416 C-197.2033189 284.60144291 -196.65417828 283.87441166 -196.08839703 283.12534916 C-195.42839703 283.12534916 -194.76839703 283.12534916 -194.08839703 283.12534916 C-193.94402203 282.50659916 -193.79964703 281.88784916 -193.65089703 281.25034916 C-193.08839703 279.12534916 -193.08839703 279.12534916 -192.08839703 277.12534916 C-191.42839703 277.12534916 -190.76839703 277.12534916 -190.08839703 277.12534916 C-189.94402203 276.50659916 -189.79964703 275.88784916 -189.65089703 275.25034916 C-189.08839703 273.12534916 -189.08839703 273.12534916 -188.08839703 271.12534916 C-187.42839703 271.12534916 -186.76839703 271.12534916 -186.08839703 271.12534916 C-185.94402203 270.50659916 -185.79964703 269.88784916 -185.65089703 269.25034916 C-185.08839703 267.12534916 -185.08839703 267.12534916 -184.08839703 265.12534916 C-183.42839703 265.12534916 -182.76839703 265.12534916 -182.08839703 265.12534916 C-181.94402203 264.50659916 -181.79964703 263.88784916 -181.65089703 263.25034916 C-181.08839703 261.12534916 -181.08839703 261.12534916 -180.08839703 259.12534916 C-179.42839703 259.12534916 -178.76839703 259.12534916 -178.08839703 259.12534916 C-177.94402203 258.50659916 -177.79964703 257.88784916 -177.65089703 257.25034916 C-177.08839703 255.12534916 -177.08839703 255.12534916 -176.08839703 253.12534916 C-175.42839703 253.12534916 -174.76839703 253.12534916 -174.08839703 253.12534916 C-173.71763042 252.08362553 -173.71763042 252.08362553 -173.33937359 251.02085698 C-171.906257 247.70376823 -170.06754634 244.79261738 -168.07277203 241.79722416 C-167.46725506 240.87654652 -167.46725506 240.87654652 -166.84950542 239.93726933 C-165.51686023 237.91369429 -164.17771576 235.8945122 -162.83839703 233.87534916 C-161.90155362 232.45580116 -160.96503559 231.03603838 -160.02882671 229.61607182 C-152.27657801 217.87061315 -144.47017448 206.16055363 -136.63820171 194.4681226 C-131.70863739 187.10238332 -126.85138695 179.69730703 -122.08131695 172.2271558 C-119.50224636 168.2130566 -116.85925765 164.24400208 -114.20167828 160.28159916 C-112.62870474 157.93231522 -111.06413892 155.57842262 -109.50636578 153.21909916 C-109.06349224 152.54999516 -108.62061871 151.88089116 -108.16432476 151.19151127 C-107.30398468 149.89141717 -106.44532134 148.59021134 -105.58864117 147.28770268 C-103.24427265 143.75236261 -100.76958201 140.41854376 -98.08839703 137.12534916 C-97.05050121 135.48201412 -96.05271779 133.8129105 -95.08839703 132.12534916 C-94.55665874 131.19915776 -94.55665874 131.19915776 -94.01417828 130.25425541 C-93.03506687 128.54682255 -92.06130463 126.8363246 -91.08839703 125.12534916 C-90.42839703 125.12534916 -89.76839703 125.12534916 -89.08839703 125.12534916 C-88.94402203 124.50659916 -88.79964703 123.88784916 -88.65089703 123.25034916 C-88.08839703 121.12534916 -88.08839703 121.12534916 -87.08839703 119.12534916 C-86.42839703 119.12534916 -85.76839703 119.12534916 -85.08839703 119.12534916 C-84.42839703 117.14534916 -83.76839703 115.16534916 -83.08839703 113.12534916 C-82.42839703 113.12534916 -81.76839703 113.12534916 -81.08839703 113.12534916 C-80.83574078 112.42023198 -80.58308453 111.71511479 -80.32277203 110.98863041 C-76.99947969 103.2798542 -71.40762907 96.43553122 -66.32667828 89.79331791 C-64.74457078 87.66221412 -63.41748634 85.42104888 -62.08839703 83.12534916 C-61.40777203 82.11472416 -60.72714703 81.10409916 -60.02589703 80.06284916 C-58.51950683 77.77896725 -57.23099084 75.6009691 -56.08839703 73.12534916 C-55.42839703 73.12534916 -54.76839703 73.12534916 -54.08839703 73.12534916 C-53.42839703 71.14534916 -52.76839703 69.16534916 -52.08839703 67.12534916 C-51.42839703 67.12534916 -50.76839703 67.12534916 -50.08839703 67.12534916 C-49.42839703 65.14534916 -48.76839703 63.16534916 -48.08839703 61.12534916 C-47.42839703 61.12534916 -46.76839703 61.12534916 -46.08839703 61.12534916 C-45.88214703 60.30034916 -45.67589703 59.47534916 -45.46339703 58.62534916 C-43.96865298 54.82054615 -42.03790161 52.19469279 -39.53761578 49.00425541 C-37.84866161 46.81453317 -36.47305387 44.51702918 -35.08839703 42.12534916 C-34.15850782 40.73051536 -33.22785131 39.33618053 -32.29152203 37.94566166 C-30.857357 35.77578861 -29.47478476 33.57607144 -28.08839703 31.37534916 C-24.19396906 25.22759498 -20.14641993 19.18460261 -16.08839703 13.14390385 C-15.58566265 12.39399174 -15.08292828 11.64407963 -14.56495953 10.87144291 C-14.11201519 10.19782719 -13.65907085 9.52421147 -13.19240093 8.83018315 C-12.03721366 7.11530862 -12.03721366 7.11530862 -11.08839703 5.12534916 C-10.42839703 5.12534916 -9.76839703 5.12534916 -9.08839703 5.12534916 C-8.93370953 4.16628666 -8.93370953 4.16628666 -8.77589703 3.18784916 C-8.43558453 2.16691166 -8.43558453 2.16691166 -8.08839703 1.12534916 C-5.09224725 0.12663257 -3.12872759 0.00023112 0 0 Z " fill="#005ACA" transform="translate(1417.088397026062,1962.874650835991)"/>
</svg>
